<?xml version="1.0" standalone="no"?>
<!DOCTYPE svg PUBLIC "-//W3C//DTD SVG 1.1//EN" "http://www.w3.org/Graphics/SVG/1.1/DTD/svg11.dtd" >
<svg xmlns="http://www.w3.org/2000/svg" xmlns:xlink="http://www.w3.org/1999/xlink" version="1.1">
<metadata>
Created by FontForge 20170731 at Wed Jan 27 10:09:32 2021
 By Aleksey,,,
Lexia Readable (version 4.02) by Keith Bates     (c) K-Type Freebie 2008       www.k-type.com      keith@k-type.com 
</metadata>
<defs>
<font id="Lexia" horiz-adv-x="1153" >
  <font-face 
    font-family="Lexia"
    font-weight="400"
    font-stretch="normal"
    units-per-em="2048"
    panose-1="2 0 4 0 0 0 0 0 0 0"
    ascent="1638"
    descent="-410"
    x-height="1038"
    cap-height="1575"
    bbox="-180.073 -598.403 3062 2157"
    underline-thickness="40"
    underline-position="-333"
    unicode-range="U+0020-F739"
  />
<missing-glyph horiz-adv-x="1024" 
d="M897 0h-768v1454h768v-1454zM256 1327v-1198h512v1198h-512z" />
    <glyph glyph-name=".notdef" horiz-adv-x="1024" 
d="M897 0h-768v1454h768v-1454zM256 1327v-1198h512v1198h-512z" />
    <glyph glyph-name=".null" horiz-adv-x="0" 
 />
    <glyph glyph-name="nonmarkingreturn" horiz-adv-x="682" 
 />
    <glyph glyph-name="space" unicode=" " horiz-adv-x="610" 
 />
    <glyph glyph-name="exclam" unicode="!" horiz-adv-x="587" 
d="M446 1513q0 -56 -49 -83v-1020q0 -41 -28.5 -69t-67.5 -28q-41 0 -69.5 28t-28.5 69v1020q-51 23 -51 83q0 89 92 89h110q92 0 92 -89zM428 55q0 -49 -38.5 -82.5t-90.5 -33.5t-90.5 33.5t-38.5 82.5t38.5 83t90.5 34t90.5 -34t38.5 -83z" />
    <glyph glyph-name="quotedbl" unicode="&#x22;" horiz-adv-x="806" 
d="M709 1452q0 -42 -21 -131q-9 -40 -35 -117q-27 -76 -67 -76q-32 -3 -60 72q-14 31 -39 125q-20 64 -20 127q0 47 34.5 85t86.5 38q56 0 88.5 -37.5t32.5 -85.5zM340 1452q0 -42 -21 -131q-10 -48 -34 -117q-27 -76 -66 -76q-33 -3 -61 72q-14 31 -39 125q-19 71 -19 127
q0 47 33.5 85t85.5 38q56 0 88.5 -37.5t32.5 -85.5z" />
    <glyph glyph-name="numbersign" unicode="#" horiz-adv-x="1732" 
d="M1681 1073q-12 -58 -51 -72q-20 -10 -69 -10h-238l-104 -413h264q114 0 96 -99q-15 -86 -109 -86h-303l-86 -307q-30 -115 -125 -115q-82 0 -82 66q0 15 7 33l86 323h-451q-16 -65 -106 -336q-30 -88 -111 -88q-78 0 -78 68q0 14 6 35l99 321h-201q-76 0 -76 72
q0 19 2 29q21 84 115 84h219l123 413h-279q-88 0 -88 74q0 102 125 102h291l80 318q27 90 117 90q32 0 56 -23.5t24 -60.5q0 -10 -3 -25l-79 -299h436q19 72 92 318q27 90 115 90q75 0 75 -66q0 -13 -6 -34q-27 -107 -86 -308h205q103 0 103 -73q0 -1 -5 -21zM1022 578
l113 413h-439l-125 -413h451z" />
    <glyph glyph-name="dollar" unicode="$" horiz-adv-x="1409" 
d="M1272 406q0 -196 -148 -314q-129 -100 -336 -121v-247q0 -43 -26 -75t-62 -32q-38 0 -64 32t-26 75v247q-236 15 -354 115q-53 44 -53 78q0 40 26.5 70t67.5 30q16 0 55 -22q135 -75 258 -90v514q-436 85 -436 415q0 189 129 303q114 102 307 117v107q0 43 26 74.5
t64 31.5q36 0 62 -31.5t26 -74.5v-111q178 -27 306 -145q110 -104 110 -205q0 -86 -90 -86q-70 0 -94 74q-13 42 -74 96q-73 64 -158 84v-494q241 -38 355 -129q129 -102 129 -286zM610 852v471q-244 -41 -241 -242q0 -168 241 -229zM1083 401q0 176 -295 234v-481
q124 19 201 75q94 67 94 172z" />
    <glyph glyph-name="percent" unicode="%" horiz-adv-x="2172" 
d="M2083 465q0 -207 -127 -352q-127 -142 -305 -142q-183 0 -310 142q-124 142 -124 352q0 208 124 350q125 143 310 143q180 0 305 -143q127 -145 127 -350zM1427 1341l-550 -1185q-21 -43 -60 -43q-55 0 -55 55q0 20 10 43l549 1186q21 43 65 43q54 0 54 -51
q0 -22 -13 -48zM967 1087q0 -205 -127 -350q-126 -141 -305 -141q-182 0 -308 141q-125 143 -125 350q0 210 125 353t308 143q180 0 305 -143q127 -145 127 -353zM1966 465q0 155 -90 268q-88 113 -225 113q-140 0 -228 -113q-90 -113 -90 -268q0 -157 90 -270
q89 -109 228 -109q136 0 225 109q90 113 90 270zM850 1087q0 158 -90 271q-87 112 -225 112q-141 0 -228 -112q-90 -113 -90 -271q0 -155 90 -268q88 -110 228 -110q137 0 225 110q90 113 90 268z" />
    <glyph glyph-name="ampersand" unicode="&#x26;" horiz-adv-x="1267" 
d="M1268 59q2 -36 -21 -60t-59 -24q-49 0 -92 52q-2 4 -13 16l-12 18l-88 115q-26 -20 -141 -100q-162 -107 -338 -107q-153 0 -277 127q-120 126 -129 279q-9 172 74 299q75 114 268 233q-33 45 -49 70q-106 156 -112 283q-6 141 81 231q89 92 240 92q179 0 270 -113
q72 -91 78 -202q3 -94 -61 -201q-68 -111 -193 -190l332 -451l82 66q21 18 47 18q35 0 59.5 -29t24.5 -67q0 -36 -29 -62l-82 -67l66 -88q71 -89 74 -138zM760 1262q-9 147 -152 147q-56 0 -95.5 -43t-39.5 -98q0 -75 25 -123l69 -107l25 -30q171 119 168 254zM879 309
q-148 211 -336 469q-153 -100 -211 -186q-55 -82 -49 -203q3 -87 73 -166q71 -77 152 -80q98 0 172 39q43 21 199 127z" />
    <glyph glyph-name="quotesingle" unicode="'" horiz-adv-x="436" 
d="M348 1452q0 -38 -22 -131q-11 -50 -37 -117q-30 -76 -72 -76q-34 -3 -65 72q-10 22 -41 125q-21 67 -21 127q0 47 36 85t93 38q64 0 98 -43q31 -36 31 -80z" />
    <glyph glyph-name="parenleft" unicode="(" horiz-adv-x="749" 
d="M670 -408q-33 -26 -60 -26q-44 0 -108 67q-193 196 -297 465q-88 233 -88 484q0 248 88 487q108 298 327 496q39 39 89 39q67 0 67 -70q0 -38 -37 -78q-320 -367 -317 -883q0 -463 311 -839q41 -47 41 -94q0 -29 -16 -48z" />
    <glyph glyph-name="parenright" unicode=")" horiz-adv-x="749" 
d="M639 582q0 -251 -88 -484q-104 -269 -297 -465q-64 -67 -109 -67q-30 0 -59 26q-16 19 -16 48q0 49 39 94q313 374 313 839q0 516 -320 883q-34 40 -34 78q0 70 67 70q46 0 88 -39q221 -199 328 -496q88 -239 88 -487z" />
    <glyph glyph-name="asterisk" unicode="*" horiz-adv-x="1042" 
d="M975 1130q0 -86 -88 -86h-217l108 -186q15 -24 15 -47q0 -36 -27.5 -60t-63.5 -24q-47 0 -73 45l-109 186l-106 -186q-27 -47 -74 -47q-36 0 -62 26t-26 62q0 24 12 45l109 186h-215q-90 0 -90 86q0 89 90 89h213l-107 186q-14 20 -14 45q0 36 27 62t63 26q47 0 74 -47
l106 -186l109 186q26 45 73 45q36 0 63.5 -24.5t27.5 -59.5q0 -23 -15 -47l-106 -186h215q88 0 88 -89z" />
    <glyph glyph-name="plus" unicode="+" horiz-adv-x="1042" 
d="M975 600q0 -88 -92 -88h-267v-291q0 -41 -26.5 -66.5t-67.5 -25.5q-42 0 -69 25.5t-27 66.5v291h-264q-94 0 -94 88q0 41 26.5 66.5t67.5 25.5h264v291q0 39 27.5 65.5t68.5 26.5t67.5 -25.5t26.5 -66.5v-291h267q92 0 92 -92z" />
    <glyph glyph-name="comma" unicode="," horiz-adv-x="477" 
d="M369 72q0 -183 -93 -299q-35 -41 -73 -15q-40 24 -13 62q35 47 35 102q0 28 -14 31q-100 24 -100 119q0 51 37.5 87t91.5 36q55 0 92 -36t37 -87z" />
    <glyph glyph-name="hyphen" unicode="-" horiz-adv-x="745" 
d="M672 600q0 -88 -92 -88h-412q-92 0 -92 88q0 41 25.5 66.5t66.5 25.5h412q92 0 92 -92z" />
    <glyph glyph-name="hyphen" unicode="&#x2010;" horiz-adv-x="745" 
d="M672 600q0 -88 -92 -88h-412q-92 0 -92 88q0 41 25.5 66.5t66.5 25.5h412q92 0 92 -92z" />
    <glyph glyph-name="period" unicode="." horiz-adv-x="481" 
d="M381 66q0 -60 -41 -101t-98 -41q-60 0 -101 41t-41 101q0 57 41 98t101 41q57 0 98 -41t41 -98z" />
    <glyph glyph-name="slash" unicode="/" horiz-adv-x="1046" 
d="M969 1522l-725 -1561q-30 -67 -90 -67q-68 0 -68 79q0 33 14 58l723 1560q30 68 92 68q66 0 66 -80q0 -30 -12 -57z" />
    <glyph glyph-name="zero" unicode="0" horiz-adv-x="1421" 
d="M1313 762q0 -318 -139 -537q-164 -256 -463 -256q-297 0 -461 258q-139 219 -139 535q0 310 141 553q169 289 459 289q292 0 463 -287q139 -242 139 -555zM1114 762q0 247 -80 424q-105 231 -323 231q-216 0 -324 -231q-80 -177 -80 -424q0 -245 80 -402
q101 -204 324 -204q222 0 323 204q80 157 80 402z" />
    <glyph glyph-name="one" unicode="1" horiz-adv-x="1036" 
d="M958 92q0 -38 -33 -65t-87 -27h-637q-54 0 -87.5 27t-33.5 65q0 39 33.5 66.5t87.5 27.5h213v1203h-213q-54 0 -87.5 27t-33.5 65q0 39 33.5 66.5t87.5 27.5h305q104 0 104 -102v-1287h228q54 0 87 -27t33 -67z" />
    <glyph glyph-name="two" unicode="2" horiz-adv-x="1339" 
d="M1196 1157q0 -212 -147 -362l-625 -625h674q43 0 70.5 -25t27.5 -61q0 -84 -98 -84h-842q-49 0 -81 30.5t-32 75.5q0 55 54 103l653 655q143 137 143 287q0 113 -86 190q-84 81 -223 78q-148 0 -240 -80q-90 -78 -90 -178q-3 -91 -102 -94q-97 0 -100 96q0 187 149 312
q150 129 375 129q222 0 371 -131t149 -316z" />
    <glyph glyph-name="three" unicode="3" horiz-adv-x="1300" 
d="M1206 424q0 -205 -149 -330t-391 -125h-88q-177 0 -314 58q-57 20 -57 77q0 36 26.5 63.5t63.5 27.5q14 0 35 -7q134 -45 252 -45h49q182 1 280.5 80t98.5 221q0 165 -162 238q-107 49 -260 49q-119 0 -119 94q0 82 119 82q128 0 213 58q106 69 106 213q0 125 -106 188
q-85 55 -205 55q-150 0 -240 -90q-70 -70 -73 -164q0 -100 -95 -100q-40 0 -68 27t-28 73q0 189 150 312q149 125 356 125q174 0 324 -111q172 -123 172 -303q0 -88 -47 -191q-51 -111 -136 -153q130 -44 205 -144q88 -113 88 -278z" />
    <glyph glyph-name="four" unicode="4" horiz-adv-x="1253" 
d="M1210 541q0 -92 -108 -95h-90v-387q0 -37 -29 -62.5t-70 -25.5q-38 0 -69 27t-31 59v389h-670q-41 0 -69.5 28t-28.5 65q0 60 57 86l654 899q59 80 143 80q45 0 79 -30t34 -73v-870q51 0 90 2q108 -3 108 -92zM813 633v678l-467 -678h467z" />
    <glyph glyph-name="five" unicode="5" horiz-adv-x="1300" 
d="M1165 455q0 -219 -184 -357q-168 -128 -397 -131h-25q-114 -3 -240 27q-159 38 -159 115q3 86 94 86q20 0 115 -27q98 -28 161 -25h21q159 3 283 82q137 91 137 250q0 156 -109 242q-101 78 -254 78h-276q-18 -62 -105 -62q-45 0 -70.5 29t-19.5 78l64 559q-49 27 -49 92
q0 35 25.5 59.5t62.5 24.5h702q88 0 88 -102q0 -35 -25.5 -58.5t-62.5 -23.5h-541l-47 -410h275q252 0 394 -141.5t142 -384.5z" />
    <glyph glyph-name="six" unicode="6" horiz-adv-x="1390" 
d="M1286 477q0 -220 -166 -364q-164 -144 -389 -144q-313 0 -483 271q-139 230 -133 559q9 355 182 569q187 236 522 236q79 0 164 -33q115 -41 115 -105q0 -85 -97 -88q-12 0 -86 19q-67 18 -106 18q-247 0 -381 -192q-120 -169 -117 -424q3 -237 90 -412
q114 -231 334 -231q145 0 248 92q102 92 102 237q-3 155 -92 250q-87 90 -217 90q-83 0 -162 -39q-69 -34 -84 -34q-86 0 -86 73q0 81 99 133q102 54 233 54q250 0 383 -148q127 -139 127 -387z" />
    <glyph glyph-name="seven" unicode="7" horiz-adv-x="1263" 
d="M1210 1493q0 -37 -34 -74q-614 -611 -713 -1353q-15 -105 -115 -105q-96 0 -96 105q0 24 2 36q70 428 240 750q148 284 401 534h-743q-41 0 -70 28t-29 67q0 38 30 66t69 28h948q110 0 110 -82z" />
    <glyph glyph-name="eight" unicode="8" horiz-adv-x="1314" 
d="M1206 461q0 -200 -168 -346q-168 -148 -381 -148t-381 148q-165 146 -165 346q0 229 223 403q-150 150 -150 322q0 170 140 295q138 123 333 123q196 0 334 -123q139 -124 139 -295q0 -173 -149 -322q225 -176 225 -403zM913 1188q0 101 -75 170q-72 69 -181 69
q-107 0 -182 -69q-76 -70 -76 -170q0 -105 71 -173.5t187 -68.5q120 3 191 74q65 65 65 168zM981 461q0 129 -88 217q-94 94 -236 94q-141 0 -233 -92q-90 -93 -90 -219q0 -128 88 -219q91 -98 235 -101q141 0 236 99q88 94 88 221z" />
    <glyph glyph-name="nine" unicode="9" horiz-adv-x="1300" 
d="M1192 1493v-1425q0 -39 -28 -68t-68 -29q-43 0 -73 27.5t-30 69.5v477q-135 -29 -245 -29q-278 -3 -449 127q-188 144 -188 408q0 263 188 413q181 140 471 140q127 0 252 -52q15 52 84 52q86 0 86 -111zM993 737v633q-78 44 -219 47q-204 3 -328 -76q-145 -92 -145 -286
q0 -185 129 -273q110 -79 301 -82q138 0 262 37z" />
    <glyph glyph-name="colon" unicode=":" horiz-adv-x="456" 
d="M358 801q0 -50 -37.5 -84.5t-91.5 -34.5t-91.5 34.5t-37.5 84.5q0 48 37.5 82.5t91.5 34.5t91.5 -34.5t37.5 -82.5zM358 154q0 -49 -37.5 -83t-91.5 -34t-91.5 34t-37.5 83t37.5 83.5t91.5 34.5t91.5 -34.5t37.5 -83.5z" />
    <glyph glyph-name="semicolon" unicode=";" horiz-adv-x="456" 
d="M358 801q0 -49 -37.5 -83t-91.5 -34t-91.5 34t-37.5 83t37.5 83t91.5 34t91.5 -34t37.5 -83zM358 158q0 -175 -92 -287q-34 -40 -73 -14q-40 24 -13 61q35 47 35 96q0 28 -14 31q-101 24 -101 113q0 49 37.5 83.5t91.5 34.5q55 0 92 -34t37 -84z" />
    <glyph glyph-name="less" unicode="&#x3c;" horiz-adv-x="755" 
d="M676 956q0 -41 -35 -82l-313 -358l311 -354q33 -36 33 -74q0 -88 -76 -88q-44 0 -78 37l-368 403q-39 42 -39 76q0 32 39 74l370 409q33 39 78 39q78 0 78 -82z" />
    <glyph glyph-name="equal" unicode="=" horiz-adv-x="1155" 
d="M1067 805q0 -92 -96 -92h-785q-96 0 -96 92q0 41 27.5 67.5t68.5 26.5h785q41 0 68.5 -26.5t27.5 -67.5zM1067 432q0 -92 -96 -92h-785q-96 0 -96 92q0 41 27.5 67.5t68.5 26.5h785q41 0 68.5 -26.5t27.5 -67.5z" />
    <glyph glyph-name="greater" unicode="&#x3e;" horiz-adv-x="755" 
d="M676 516q0 -34 -39 -76l-369 -403q-34 -37 -78 -37q-75 0 -75 88q0 39 32 74l310 354l-312 358q-34 40 -34 82q0 82 77 82q45 0 78 -39l371 -409q39 -42 39 -74z" />
    <glyph glyph-name="question" unicode="?" horiz-adv-x="1335" 
d="M1237 1126q0 -212 -123 -322t-354 -110h-55q-99 0 -99 -114v-172q0 -48 -28.5 -76.5t-71.5 -28.5q-42 0 -70 28.5t-28 76.5v202q0 262 258 262h86q274 0 274 265q0 110 -100 194q-101 88 -240 88q-144 0 -248 -96q-91 -88 -94 -190q0 -95 -100 -95q-101 -3 -101 97
q-3 181 160 325t377 144q235 0 395 -142q162 -140 162 -336zM625 51q0 -47 -35 -80.5t-84 -33.5q-48 0 -82.5 33.5t-34.5 80.5q0 49 34.5 83t82.5 34q50 0 84.5 -34t34.5 -83z" />
    <glyph glyph-name="at" unicode="@" horiz-adv-x="1851" 
d="M1753 764q0 -317 -158 -475q-98 -101 -225 -101q-90 3 -184 76l-53 55q-79 -64 -187 -61q-195 3 -332 143q-136 139 -139 359q0 208 137 354q139 148 334 148q60 0 146 -27q30 43 77 43q33 0 56.5 -27t23.5 -69v-629q0 -38 19 -100q30 -76 110 -76q78 0 125 92
q60 126 60 295q-3 285 -187 487q-185 203 -450 203q-266 0 -451 -203q-184 -202 -184 -487q0 -283 184 -488q184 -202 451 -202q55 0 112 8q87 12 99 -74q15 -89 -84 -104q-88 -10 -127 -10q-343 0 -584 253q-242 254 -242 617q0 362 242 616q244 256 584 256
q339 0 583 -256t244 -616zM1085 479l-8 49v41v498q-78 34 -131 31q-138 0 -223 -97q-83 -95 -86 -239q0 -139 86 -242q87 -100 223 -100q86 0 139 59z" />
    <glyph glyph-name="A" unicode="A" horiz-adv-x="1419" 
d="M883 1520l467 -1401q10 -33 10 -58q0 -93 -96 -90q-67 0 -97 88l-159 469h-570l-196 -489q-41 -68 -107 -68q-30 0 -53 25.5t-23 56.5q0 12 7 33q134 334 176 442q-103 0 -103 90q0 87 111 87h67l326 825q40 94 121 94q82 0 119 -104zM510 705h438l-200 612z" />
    <glyph glyph-name="B" unicode="B" horiz-adv-x="1341" 
d="M1251 436q0 -243 -198 -362q-173 -105 -467 -105q-160 0 -252 29q-184 58 -184 303v1182q0 110 100 110q63 0 72 -55q109 53 286 53q236 0 389 -106q168 -110 168 -293q0 -235 -174 -342q133 -53 199 -170q61 -107 61 -244zM987 1182q0 100 -115 168q-107 61 -262 61
q-147 0 -264 -51v-434q81 -16 234 -13q156 3 254 48q153 67 153 221zM1061 457q3 284 -481 284q-163 0 -234 -14v-405q0 -93 55 -131.5t183 -38.5q474 0 477 305z" />
    <glyph glyph-name="C" unicode="C" horiz-adv-x="1300" 
d="M1237 1153q0 -46 -30 -75t-72 -29q-99 0 -99 104q0 74 -78 158q-101 110 -262 110q-187 0 -307 -172q-129 -181 -129 -489q0 -610 488 -613q112 0 249 76q27 15 54 15q38 0 65 -28t27 -65q0 -52 -51 -86q-146 -90 -365 -90q-661 0 -664 791q0 413 201 643
q177 201 449 201q205 0 364 -138q160 -136 160 -313z" />
    <glyph glyph-name="D" unicode="D" horiz-adv-x="1474" 
d="M1350 762q0 -357 -222 -576q-217 -217 -575 -217q-202 0 -299 72q-115 83 -115 281v1155q0 114 92 114q62 0 80 -53q100 53 318 53q324 0 530 -262q191 -244 191 -567zM1153 758q0 257 -131 446q-150 215 -391 215q-174 0 -295 -59v-1063q0 -152 287 -152q228 0 385 195
q145 183 145 418z" />
    <glyph glyph-name="E" unicode="E" horiz-adv-x="1320" 
d="M1231 1481q0 -84 -121 -84h-729v-525h635q51 0 85 -26t34 -68q0 -84 -119 -84h-635v-305q0 -211 231 -211h486q119 0 119 -86q0 -42 -34 -67t-85 -25h-551q-135 0 -236 66q-127 83 -127 247l-2 379q-82 15 -82 90q0 72 82 90v572q0 131 135 131h793q121 0 121 -94z" />
    <glyph glyph-name="F" unicode="F" horiz-adv-x="1249" 
d="M1210 1481q0 -84 -108 -84h-615q-104 0 -104 -125v-402h594q110 0 110 -88q0 -86 -110 -86h-594v-639q0 -88 -100 -88q-101 0 -101 90v635q-82 15 -82 88q0 72 82 90v449q0 254 240 254h680q108 0 108 -94z" />
    <glyph glyph-name="G" unicode="G" horiz-adv-x="1458" 
d="M1382 778q0 -56 -57 -71q10 -75 10 -132q0 -277 -184 -452q-163 -156 -383 -156q-273 0 -467 232q-192 232 -192 579t155 563q188 265 565 265q172 0 293 -50q72 -28 72 -92q0 -33 -24.5 -57.5t-61.5 -24.5q-20 0 -53 11q-102 30 -228 30q-248 0 -385 -174
q-137 -171 -137 -471q0 -262 144 -444q138 -170 319 -170q149 0 250 98q115 115 115 303q0 55 -13 131h-467q-118 0 -118 82q0 39 32.5 66.5t85.5 27.5h621q108 0 108 -94z" />
    <glyph glyph-name="H" unicode="H" horiz-adv-x="1409" 
d="M1300 1487v-1399q0 -53 -28 -86t-70 -33q-40 0 -68 33t-28 86v608h-719v-608q0 -53 -28 -86t-68 -33q-42 0 -70 33t-28 86v610q-93 9 -93 82q0 79 93 88v619q0 53 28 86t70 33q40 0 68 -33t28 -86v-615h719v615q0 53 28 86t68 33q42 0 70 -33t28 -86z" />
    <glyph glyph-name="I" unicode="I" horiz-adv-x="1050" 
d="M965 90q0 -90 -111 -90h-657q-111 0 -111 90q0 86 111 86h223v1221h-213q-111 0 -111 86q0 92 111 92h637q110 0 110 -92q0 -86 -110 -86h-228v-1221h238q111 0 111 -86z" />
    <glyph glyph-name="J" unicode="J" horiz-adv-x="1329" 
d="M1192 1411v-616q0 -427 -155.5 -627.5t-463.5 -200.5q-205 3 -354 158t-149 395q0 113 96 113q42 0 68 -31t26 -76q0 -165 107 -272t239 -107q181 0 281 140q108 150 108 508v512q0 90 -75 90h-291q-128 0 -209 -37q-23 -10 -51 -10q-82 0 -82 84q0 61 84.5 101t218.5 40
h434q168 0 168 -164z" />
    <glyph glyph-name="K" unicode="K" horiz-adv-x="1261" 
d="M1092 -23q-40 0 -76 31l-656 608v-550q0 -39 -28.5 -68t-69.5 -29h-2q-38 0 -67 29.5t-29 67.5v636q-45 26 -45 82q0 53 45 82v639q0 41 28.5 69t67.5 28h2q41 0 69.5 -28t28.5 -69v-528l611 592q35 30 80 30q40 0 63 -24t23 -62q0 -46 -35 -81l-656 -635l703 -658
q33 -26 33 -69q0 -38 -26.5 -65.5t-63.5 -27.5z" />
    <glyph glyph-name="L" unicode="L" horiz-adv-x="1165" 
d="M1116 92q0 -38 -28.5 -65t-69.5 -27h-819q-99 0 -99 92q0 58 66 86v1329q0 41 28.5 70t67.5 29q41 0 69.5 -29t28.5 -70v-1323h658q41 0 69.5 -27.5t28.5 -64.5z" />
    <glyph glyph-name="M" unicode="M" horiz-adv-x="1806" 
d="M1378 1532l344 -1446q2 -6 2 -20q0 -38 -30 -67.5t-68 -29.5q-76 0 -94 74l-258 1092l-277 -1090q-18 -76 -94 -76q-78 0 -96 76l-275 1081l-253 -1075q-18 -82 -99 -82q-38 0 -66 31t-28 72q0 10 4 22l340 1438q15 74 96 74q77 0 95 -74l282 -1120l281 1120
q18 74 104 74q75 0 90 -74z" />
    <glyph glyph-name="N" unicode="N" horiz-adv-x="1470" 
d="M1329 1509l2 -1441q0 -42 -29.5 -70.5t-68.5 -28.5q-54 0 -84 43l-815 1219v-1163q0 -41 -28.5 -70t-67.5 -29q-41 0 -70 29t-29 70v1439q0 97 97 97q54 0 75 -35l826 -1229v1169q0 39 28 68t68 29q41 0 68.5 -28t27.5 -69z" />
    <glyph glyph-name="O" unicode="O" horiz-adv-x="1658" 
d="M1550 778q0 -342 -209 -577q-209 -232 -512 -232t-512 232q-208 233 -208 577q0 349 208 588q211 240 512 240q303 0 512 -240q209 -241 209 -588zM1358 780q0 264 -150 451q-149 186 -379 186q-229 0 -378 -186q-148 -189 -148 -451q0 -261 148 -444q150 -178 378 -178
q232 0 379 178q150 182 150 444z" />
    <glyph glyph-name="P" unicode="P" horiz-adv-x="1304" 
d="M1221 1042q0 -260 -203 -401q-174 -125 -447 -125q-148 0 -225 23v-471q0 -42 -29.5 -70.5t-72.5 -28.5q-41 0 -67.5 28.5t-26.5 70.5v1411q0 112 98 112q50 0 71 -41q113 39 232 39q275 0 461 -137q209 -150 209 -410zM1030 1047q0 192 -158 288q-132 78 -327 78
q-96 0 -199 -41v-651q98 -29 242 -29q176 0 297 80q145 95 145 275z" />
    <glyph glyph-name="Q" unicode="Q" horiz-adv-x="1755" 
d="M1462 268l162 -176q25 -28 25 -61q0 -37 -25.5 -63.5t-62.5 -26.5q-44 0 -78 34l-152 164q-219 -168 -459 -168q-306 0 -536 236q-238 244 -238 577q0 335 238 582q231 240 536 240q304 0 535 -240q238 -247 238 -582q0 -280 -183 -516zM1454 784q0 259 -176 447
t-406 188q-231 0 -407 -188q-174 -186 -174 -447q0 -256 174 -442t407 -186q168 0 334 123l-370 411q-25 28 -25 62q0 37 25.5 63.5t62.5 26.5q43 0 78 -35l356 -397q121 183 121 374z" />
    <glyph glyph-name="R" unicode="R" horiz-adv-x="1341" 
d="M801 645l434 -508q31 -39 31 -76t-26.5 -64.5t-61.5 -27.5q-53 0 -82 39l-510 610q-138 -3 -242 17v-567q0 -42 -26.5 -70.5t-67.5 -28.5h-6q-38 0 -66 29t-28 70v1417q0 106 94 106q54 0 75 -43q104 43 216 43q303 0 495 -133q191 -132 191 -354q0 -191 -136 -318
q-113 -104 -284 -141zM1028 1104q0 307 -475 307q-113 0 -209 -41v-549q77 -16 121 -20q-14 22 -14 49q0 76 69 76q44 0 84 -43l70 -82q139 9 233 73q121 83 121 230z" />
    <glyph glyph-name="S" unicode="S" horiz-adv-x="1409" 
d="M1296 434q0 -230 -190 -356q-165 -109 -410 -109q-332 0 -481 125q-55 46 -55 84q0 43 27.5 74t70.5 31q17 0 61 -23q175 -100 371 -100q150 0 266 61q140 78 140 209q0 136 -156 203q-77 33 -293 69q-518 76 -518 447q0 225 154 346q142 109 387 109q234 0 407 -138
q150 -120 150 -247q0 -40 -28.5 -65.5t-70.5 -25.5q-72 0 -100 78q-22 67 -110 131q-109 80 -240 80q-142 0 -234 -63q-108 -70 -108 -203q3 -208 428 -272q266 -38 391 -136q141 -108 141 -309z" />
    <glyph glyph-name="T" unicode="T" horiz-adv-x="1312" 
d="M1288 1481q0 -38 -28.5 -65t-69.5 -27h-434v-1321q0 -41 -29 -70t-70 -29t-68.5 28.5t-27.5 70.5v1321h-440q-39 0 -67.5 27t-28.5 65t29 66t67 28h1069q41 0 69.5 -27.5t28.5 -66.5z" />
    <glyph glyph-name="U" unicode="U" horiz-adv-x="1515" 
d="M1376 1507v-923q0 -254 -180 -434q-178 -181 -432 -181q-256 0 -440 181q-185 182 -185 434v923q0 99 99 99q96 0 96 -101v-921q0 -171 129 -291q130 -121 301 -121t295 121q125 119 125 291v923q0 99 98 99q41 0 67.5 -28.5t26.5 -70.5z" />
    <glyph glyph-name="V" unicode="V" horiz-adv-x="1329" 
d="M1266 1481l-498 -1440q-25 -72 -102 -72q-76 0 -101 72l-499 1440q-7 17 -7 28q0 37 30.5 66t68.5 29q69 0 94 -72l414 -1190l413 1190q25 72 95 72q38 0 68 -29t30 -66q0 -13 -6 -28z" />
    <glyph glyph-name="W" unicode="W" horiz-adv-x="2101" 
d="M2042 1509q0 -29 -209 -704l-238 -764q-21 -72 -104 -72q-81 0 -102 72l-338 1130l-336 -1130q-21 -72 -105 -72q-83 0 -104 72l-246 778q-201 647 -201 690q0 38 29.5 67.5t67.5 29.5q73 0 94 -72l360 -1206l348 1206q21 72 95 72q69 0 90 -70l348 -1208l362 1206
q21 72 93 72q38 0 67 -29.5t29 -67.5z" />
    <glyph glyph-name="X" unicode="X" horiz-adv-x="1449" 
d="M848 799l514 -674q20 -26 20 -57q0 -41 -28.5 -70t-69.5 -29q-49 0 -78 39l-481 631l-479 -631q-29 -39 -78 -39q-41 0 -69.5 29t-28.5 70q0 31 20 57l514 674l-495 651q-19 25 -19 57q0 41 28.5 69t67.5 28q51 0 78 -37l461 -609l463 609q26 39 78 39q39 0 67.5 -29
t28.5 -70q0 -29 -19 -57z" />
    <glyph glyph-name="Y" unicode="Y" horiz-adv-x="1333" 
d="M1264 1466l-498 -878v-520q0 -41 -28.5 -70t-67.5 -29q-42 0 -72.5 29t-30.5 70v520l-495 874q-13 23 -13 45q0 38 30.5 67.5t68.5 29.5q58 0 88 -52l420 -731l421 731q27 52 89 52q39 0 69.5 -29.5t30.5 -67.5q0 -23 -12 -41z" />
    <glyph glyph-name="Z" unicode="Z" horiz-adv-x="1363" 
d="M1307 92q0 -38 -29 -65t-70 -27h-1050q-99 0 -99 90q0 35 23 68l917 1228h-821q-41 0 -69.5 28t-28.5 67q0 38 29.5 66t68.5 28l1030 -2q88 0 88 -86q0 -38 -24 -68l-907 -1233h843q41 0 70 -28t29 -66z" />
    <glyph glyph-name="bracketleft" unicode="[" horiz-adv-x="770" 
d="M688 -332q0 -36 -26 -61t-64 -25h-330q-37 0 -63.5 25.5t-26.5 60.5v1768q0 35 26.5 60.5t63.5 25.5h310q37 0 63.5 -25.5t26.5 -60.5t-26.5 -60.5t-63.5 -25.5h-226v-1596h246q38 0 64 -25t26 -61z" />
    <glyph glyph-name="backslash" unicode="\" horiz-adv-x="1046" 
d="M244 1591l725 -1560q12 -27 12 -58q0 -79 -68 -79q-60 0 -90 67l-725 1561q-12 27 -12 57q0 80 68 80q60 0 90 -68z" />
    <glyph glyph-name="bracketright" unicode="]" horiz-adv-x="770" 
d="M688 1436v-4v-7v-1757q0 -36 -26 -61t-64 -25h-330q-37 0 -63.5 25.5t-26.5 60.5t26.5 60.5t63.5 25.5h246v1596h-225q-37 0 -63.5 25.5t-26.5 60.5t26.5 60.5t63.5 25.5h309q38 0 64.5 -25.5t25.5 -60.5z" />
    <glyph glyph-name="asciicircum" unicode="^" horiz-adv-x="1208" 
d="M1010 1161q0 -84 -90 -84q-49 0 -89 37l-213 184l-217 -184q-41 -35 -79 -35q-42 0 -69.5 23t-27.5 59q0 48 39 84l275 246q47 41 79 41q36 0 80 -41l269 -246q43 -40 43 -84z" />
    <glyph glyph-name="underscore" unicode="_" horiz-adv-x="1085" 
d="M1157 -248q0 -90 -92 -90h-1032q-92 0 -92 90q0 41 26.5 66.5t65.5 25.5h1032q92 0 92 -92z" />
    <glyph glyph-name="grave" unicode="`" horiz-adv-x="1507" 
d="M915 1681q-20 0 -49 11l-286 131q-60 28 -60 73q0 29 22.5 51.5t51.5 22.5q22 0 45 -10l287 -131q61 -27 61 -78q0 -70 -72 -70z" />
    <glyph glyph-name="a" unicode="a" 
d="M1051 49q0 -35 -28.5 -62.5t-61.5 -27.5q-63 0 -101 66q-38 -21 -110 -39q-74 -19 -117 -19q-232 0 -383 142q-159 153 -156 399q3 231 156 381q157 151 383 151q98 0 180 -43q21 47 80 47q82 0 82 -92v-596q0 -129 37 -204q39 -74 39 -103zM813 174q-14 49 -14 105v552
q-76 46 -166 46q-159 0 -260 -107q-103 -106 -103 -262q0 -158 103 -270q103 -109 260 -109q84 0 180 45z" />
    <glyph glyph-name="b" unicode="b" horiz-adv-x="1202" 
d="M1112 506q0 -244 -135 -391q-134 -146 -361 -146q-204 0 -305 66q-18 -66 -86 -66q-86 0 -86 97v1447q0 38 26.5 64.5t63.5 26.5q38 0 63 -26t25 -65v-1296q107 -84 281 -84q154 0 246 117q84 110 84 252q0 148 -80 260q-78 112 -195 112q-21 0 -55 -5t-45 -5
q-30 -1 -54 23t-24 55q0 63 47 84q32 14 123 14q201 0 334 -145t133 -389z" />
    <glyph glyph-name="c" unicode="c" horiz-adv-x="1046" 
d="M981 856q0 -31 -24 -53.5t-56 -22.5q-19 0 -39 13q-70 47 -125 63q-56 16 -139 16q-161 0 -248 -112q-82 -104 -82 -266q0 -133 99 -244q102 -117 239 -117q106 0 191 27q30 10 39 10q84 0 84 -84q0 -80 -129 -104q-72 -11 -195 -11q-215 0 -363 148q-147 147 -147 375
q0 215 145 380q147 166 365 166q224 0 350 -114q35 -35 35 -70z" />
    <glyph glyph-name="d" unicode="d" horiz-adv-x="1187" 
d="M1049 1509v-1454q0 -86 -91 -86q-72 0 -84 72q-110 -72 -256 -72q-232 0 -385 150t-153 387q0 224 156 377q155 155 382 155q154 0 252 -61v532q0 39 26 67t62 28q38 0 64.5 -28t26.5 -67zM870 219v567q-97 91 -252 91q-157 0 -258 -107q-98 -104 -98 -264
q0 -170 98 -271.5t258 -101.5q143 0 252 86z" />
    <glyph glyph-name="e" unicode="e" horiz-adv-x="1179" 
d="M1090 526q0 -42 -35 -69t-82 -27h-688q35 -153 143 -233q88 -64 186 -64q54 0 110 9.5t89 18.5l33 9q35 0 58.5 -23.5t23.5 -56.5q0 -121 -330 -121q-212 0 -358 152t-146 366q0 226 144 385q149 168 372 168q222 0 353 -149q127 -142 127 -365zM289 594h622
q0 108 -82 190q-90 93 -217 90q-138 0 -231 -90q-83 -80 -92 -190z" />
    <glyph glyph-name="f" unicode="f" horiz-adv-x="927" 
d="M903 1493q0 -85 -82 -82h-133q-111 0 -170 -80q-47 -65 -47 -157v-136h317q89 0 89 -82q0 -79 -89 -79h-317v-809q0 -41 -25.5 -70t-62.5 -29t-64.5 29t-27.5 70v809h-135q-86 0 -86 79q0 82 86 82h135v131q0 198 102 306q93 100 266 100h156q88 0 88 -82z" />
    <glyph glyph-name="g" unicode="g" 
d="M1004 944v-1098q0 -247 -170 -333q-109 -56 -334 -56q-176 0 -267 45q-51 23 -51 82q0 11 4 31q12 47 74 47q7 0 27 -4q124 -37 211 -37h34q144 0 209 41q84 53 84 182v158q-79 -33 -184 -33q-240 0 -399 135q-173 147 -170 392q3 231 170 385q171 157 399 157
q93 0 199 -41q21 47 80 47q84 0 84 -100zM829 168v661q-105 48 -188 48q-162 0 -276 -111q-113 -110 -113 -270q0 -156 113 -263q113 -104 276 -104q87 0 188 39z" />
    <glyph glyph-name="h" unicode="h" horiz-adv-x="1177" 
d="M1053 522v-459q0 -41 -25.5 -67.5t-62.5 -26.5q-36 0 -62 27t-26 67v408q0 175 -78 285q-87 118 -252 118q-129 0 -232 -77v-738q0 -40 -25 -65t-63 -25t-63 25t-25 65v1446q0 41 26 70t62 29q37 0 62.5 -29t25.5 -70v-530q97 63 220 63q248 0 383 -133t135 -383z" />
    <glyph glyph-name="i" unicode="i" horiz-adv-x="552" 
d="M403 1380q0 -52 -36.5 -88.5t-90.5 -36.5q-53 0 -89.5 36.5t-36.5 88.5q0 54 36 90.5t90 36.5t90.5 -36.5t36.5 -90.5zM377 940v-860q0 -48 -28.5 -79.5t-74.5 -31.5q-43 0 -70.5 31.5t-27.5 79.5v860q0 38 30.5 68t67.5 30q41 0 72 -30t31 -68z" />
    <glyph glyph-name="j" unicode="j" horiz-adv-x="585" 
d="M420 1380q0 -51 -37 -88t-88 -37q-53 0 -90 36.5t-37 88.5q0 54 36.5 90.5t90.5 36.5q51 0 88 -36.5t37 -90.5zM395 942v-1018q0 -229 -135 -379q-125 -143 -299 -143h-33h-20q-82 0 -88 72q-3 83 117 92q114 8 187 108.5t73 259.5v1008q0 40 30 69t68 29q39 0 69.5 -29
t30.5 -69z" />
    <glyph glyph-name="k" unicode="k" horiz-adv-x="1011" 
d="M836 -33q-39 0 -70 31l-459 459v-389q0 -99 -88 -99q-90 0 -90 99v1441q0 41 25.5 67t64.5 26q88 0 88 -93v-819l78 -78l401 404q35 35 74 35q32 0 56 -23t24 -55q0 -37 -33 -70l-405 -403l377 -377q34 -34 34 -72q0 -35 -22.5 -59.5t-54.5 -24.5z" />
    <glyph glyph-name="l" unicode="l" horiz-adv-x="581" 
d="M444 123q21 -27 21 -62q0 -37 -26 -64.5t-62 -27.5q-65 0 -131 90q-74 109 -74 291v1155q0 41 29.5 70t70.5 29t71 -29t30 -70v-1120q0 -156 71 -262z" />
    <glyph glyph-name="m" unicode="m" horiz-adv-x="1632" 
d="M1503 565v-502q0 -41 -24.5 -67.5t-61.5 -26.5t-61.5 26.5t-24.5 67.5v480q0 168 -47 245q-53 84 -174 84q-118 0 -213 -108q12 -64 12 -123v-96v-482q0 -41 -24.5 -67.5t-61.5 -26.5t-62.5 26.5t-25.5 67.5v480q0 176 -37 243q-50 86 -186 86q-124 0 -209 -102v-702
q0 -41 -25.5 -70t-60.5 -29q-36 0 -62 29t-26 70v882q0 90 92 90q85 0 82 -88q82 88 225 88q214 0 306 -120q118 118 274 118q395 0 395 -473z" />
    <glyph glyph-name="n" unicode="n" horiz-adv-x="1091" 
d="M963 582v-519q0 -39 -25.5 -66.5t-63.5 -27.5q-37 0 -62.5 28t-25.5 66l2 459q0 164 -40 240q-55 110 -201 110q-152 0 -240 -104v-700q0 -39 -26 -69t-62 -30q-37 0 -63.5 30t-26.5 69v880q0 90 94 90q84 0 84 -90q84 90 242 90q414 0 414 -456z" />
    <glyph glyph-name="o" unicode="o" horiz-adv-x="1157" 
d="M1059 504q0 -234 -137 -383q-135 -150 -342 -150q-206 0 -344 150q-136 151 -136 383q0 237 138 387q139 151 342 151t342 -151q137 -149 137 -387zM883 494q0 159 -80 268q-86 115 -223 115q-140 0 -222 -113q-82 -110 -82 -270q0 -158 82.5 -259.5t221.5 -101.5
q138 0 221 103q82 101 82 258z" />
    <glyph glyph-name="p" unicode="p" horiz-adv-x="1202" 
d="M1112 500q0 -228 -117 -375q-130 -160 -350 -160q-160 0 -160 96q0 32 23 56t55 24q9 0 45 -5t45 -5q129 0 209 127q66 111 66 244q0 151 -86 260q-94 117 -244 117q-164 0 -281 -91v-1298q0 -37 -25.5 -62.5t-62.5 -25.5t-63.5 25.5t-26.5 62.5v1450q0 100 86 100
q74 0 86 -79q122 79 305 79q232 0 369 -155q127 -151 127 -385z" />
    <glyph glyph-name="q" unicode="q" horiz-adv-x="1193" 
d="M1124 -461q13 -23 13 -47q0 -90 -80 -90q-62 0 -115 86q-63 117 -63 293v250q-106 -62 -261 -62q-227 0 -385 152q-153 150 -153 385q0 226 156 379q155 155 382 155q167 0 265 -67q12 76 88 76q86 0 86 -82v-1151q0 -152 67 -277zM879 223v568q-101 90 -261 90
q-159 0 -260 -107q-98 -107 -98 -268q0 -162 100 -268q101 -107 258 -107q161 0 261 92z" />
    <glyph glyph-name="r" unicode="r" horiz-adv-x="888" 
d="M791 856q-11 0 -68 15.5t-80 15.5q-101 0 -211 -90q-106 -90 -127 -199v-530q0 -41 -25.5 -70t-62.5 -29t-62.5 29t-25.5 70v880q0 90 92 90q84 0 84 -92v-43q112 148 340 148q92 0 155.5 -31t63.5 -86q0 -31 -21.5 -54.5t-51.5 -23.5z" />
    <glyph glyph-name="s" unicode="s" horiz-adv-x="1040" 
d="M950 283q0 -316 -438 -316q-115 0 -225 29q-150 40 -150 121q0 32 21 56t51 24q19 0 43 -7q12 -4 47 -16t53 -17.5t47.5 -13.5t56.5 -11t56 -3q260 0 260 145q0 86 -96 127q-66 25 -180 33q-390 34 -390 307q-3 146 134 230q115 71 272 71q116 0 215 -45
q119 -52 154 -147q8 -19 8 -41q0 -72 -78 -72q-42 0 -68 39q-48 58 -65 70q-58 37 -166 37q-84 0 -145 -27q-81 -40 -84 -113q0 -133 241 -151q426 -34 426 -309z" />
    <glyph glyph-name="t" unicode="t" horiz-adv-x="804" 
d="M739 61q0 -37 -26 -63.5t-64 -26.5h-61q-160 0 -248 105q-80 95 -80 239v564h-94q-43 0 -71.5 23.5t-28.5 58.5q0 33 29 57t71 24h94v256q0 41 26 70t62 29q37 0 63.5 -29t26.5 -70v-256h201q42 0 71 -24t29 -57q0 -35 -28.5 -57.5t-71.5 -22.5h-203v-539
q0 -203 178 -209h35q35 -1 62.5 -23.5t27.5 -48.5z" />
    <glyph glyph-name="u" unicode="u" horiz-adv-x="1097" 
d="M1026 100q12 -21 12 -47q0 -38 -26.5 -66t-61.5 -28q-75 0 -102 68q-125 -58 -287 -58q-432 0 -432 461v524q0 38 26.5 64t63.5 26t62.5 -26t25.5 -64v-448q0 -180 47 -266q61 -107 211 -107q145 0 238 43q-17 39 -17 100v672q0 41 25.5 68.5t62.5 27.5t63 -27.5
t26 -68.5v-590q0 -150 63 -258z" />
    <glyph glyph-name="v" unicode="v" horiz-adv-x="1009" 
d="M954 928l-362 -897q-24 -62 -86 -62q-64 0 -88 62l-363 897q-6 15 -6 30q0 37 25.5 63t60.5 26q60 0 84 -62l287 -702l285 702q24 62 86 62q35 0 59.5 -26t24.5 -63q0 -12 -7 -30z" />
    <glyph glyph-name="w" unicode="w" horiz-adv-x="1402" 
d="M1354 965q0 -30 -8 -54l-238 -811q-8 -30 -25 -61q-33 -68 -98 -68q-12 0 -45 11q-41 20 -57 65q-6 23 -185 610l-180 -612q-21 -74 -98 -74q-32 0 -51 13q-48 35 -68 104l-242 823q-10 33 -10 54q0 82 82 82q73 0 88 -58l201 -729l198 725q15 59 82 59q71 0 86 -59
l199 -725l199 727q15 60 90 60q35 0 57.5 -23.5t22.5 -58.5z" />
    <glyph glyph-name="x" unicode="x" horiz-adv-x="1093" 
d="M659 494l322 -385q20 -23 20 -56q0 -37 -23 -62.5t-58 -25.5q-48 0 -84 45l-289 348l-289 -346q-37 -43 -84 -43q-35 0 -58.5 24.5t-23.5 61.5q0 32 21 56l321 383l-344 407q-20 23 -20 57q0 36 23.5 61t58.5 25q50 0 86 -45l309 -370l311 370q36 45 84 45q35 0 58.5 -25
t23.5 -61q0 -34 -20 -57z" />
    <glyph glyph-name="y" unicode="y" horiz-adv-x="1173" 
d="M1034 948v-1106q0 -211 -143 -309q-113 -76 -301 -76q-203 0 -322 43q-55 27 -55 84q0 80 80 80q8 0 24 -4q125 -42 250 -39q289 3 289 211v223q-42 -44 -129 -69q-67 -21 -119 -21q-479 0 -479 520v469q0 38 25.5 64t62.5 26t62.5 -26t25.5 -64v-417q0 -177 66 -291
q77 -130 225 -127q160 3 260 100v729q0 41 27.5 68.5t64.5 27.5q36 0 61 -27.5t25 -68.5z" />
    <glyph glyph-name="z" unicode="z" horiz-adv-x="1064" 
d="M977 954q0 -27 -29 -67l-598 -725h537q88 0 88 -78q0 -84 -88 -84h-688q-42 0 -75.5 25t-33.5 59q0 40 25 68l596 725h-518q-91 0 -91 77q0 36 26 60t65 24h686q39 0 68.5 -24t29.5 -60z" />
    <glyph glyph-name="braceleft" unicode="{" horiz-adv-x="770" 
d="M721 -291q0 -36 -26.5 -61t-63.5 -25h-99q-130 0 -225 103q-93 100 -96 239l-10 352q-3 148 -78 148q-54 0 -86.5 31t-32.5 75q0 45 32 75t87 30q75 0 78 133l10 477q3 123 80 223q88 113 235 113l84 -2q37 0 63.5 -24.5t26.5 -59.5t-26.5 -60.5t-63.5 -25.5h-63
q-69 0 -115 -61.5t-47 -159.5l-10 -475q-3 -139 -103 -179q100 -40 103 -172l10 -428q1 -74 54.5 -128t123.5 -54h68q37 0 63.5 -24.5t26.5 -59.5z" />
    <glyph glyph-name="bar" unicode="|" horiz-adv-x="514" 
d="M360 1604v-1866q0 -41 -29.5 -69.5t-70.5 -28.5t-70.5 28.5t-29.5 69.5v1866q0 41 29.5 69.5t70.5 28.5t70.5 -28.5t29.5 -69.5z" />
    <glyph glyph-name="braceright" unicode="}" horiz-adv-x="770" 
d="M653 465q-75 0 -78 -148l-10 -352q-3 -134 -100 -239q-95 -103 -221 -103h-99q-38 0 -65 24.5t-27 61.5q0 35 27 59.5t65 24.5h66q72 0 125.5 53.5t54.5 128.5l8 428q3 131 105 172q-102 40 -105 179l-8 475q-2 98 -47 159.5t-117 61.5h-61q-37 0 -63.5 25.5t-26.5 60.5
t26.5 59.5t63.5 24.5l84 2q147 0 235 -113q77 -100 80 -223l10 -477q3 -133 78 -133q54 0 85.5 -30.5t31.5 -74.5q0 -45 -31.5 -75.5t-85.5 -30.5z" />
    <glyph glyph-name="asciitilde" unicode="~" horiz-adv-x="1085" 
d="M1061 711q0 -56 -90 -125q-91 -66 -187 -66q-126 0 -235 92q-86 74 -160 74q-55 0 -125 -61q-39 -33 -86 -33q-30 0 -51 25t-21 57q0 58 93 127q94 67 196 67q116 0 217 -82q100 -81 158 -81q65 0 117 43q54 45 90 45q81 0 84 -82z" />
    <glyph glyph-name="nbspace" unicode="&#xa0;" horiz-adv-x="610" 
 />
    <glyph glyph-name="exclamdown" unicode="&#xa1;" horiz-adv-x="587" 
d="M428 1485q0 -49 -38.5 -83t-90.5 -34t-90.5 34t-38.5 83t38.5 83t90.5 34t90.5 -34t38.5 -83zM446 27q0 -88 -92 -88h-110q-92 0 -92 88q0 61 51 84v1019q0 39 28.5 68t69.5 29q38 0 67 -29.5t29 -67.5v-1019q49 -27 49 -84z" />
    <glyph glyph-name="cent" unicode="&#xa2;" horiz-adv-x="1050" 
d="M965 676q0 -46 -50 -84q-108 -75 -223 -100v-68q0 -41 -25.5 -68.5t-62.5 -27.5t-62.5 27.5t-25.5 68.5v65q-200 37 -334 189q-129 150 -129 352q0 200 129 350q133 151 334 191v69q0 41 25.5 69t62.5 28t62.5 -28t25.5 -69v-69q139 -24 234 -101q35 -27 35 -65
q0 -31 -23 -55.5t-53 -24.5q-24 0 -41 14q-69 44 -152 66v-741q96 31 156 71q21 15 45 15q30 0 51 -22t21 -52zM516 664v739q-129 -38 -202.5 -139.5t-73.5 -233.5q0 -134 73 -231t203 -135z" />
    <glyph glyph-name="sterling" unicode="&#xa3;" horiz-adv-x="1280" 
d="M1196 164q0 -88 -174 -131q-121 -33 -281 -33h-598q-92 0 -92 88q0 95 96 98h43l-2 506h-55q-96 -3 -96 88q0 65 47 86q29 13 106 13v98q0 268 107 426q126 190 377 190q194 0 319 -110t125 -297q0 -109 -98 -109q-77 0 -92 82q-16 113 -47 158q-61 94 -213 94
q-190 0 -248 -190q-35 -103 -35 -344h389q36 0 62 -30.5t26 -68.5q0 -37 -25.5 -62.5t-62.5 -25.5h-389v-506h365q186 0 307 62q25 14 53 14q36 0 61 -29t25 -67z" />
    <glyph glyph-name="currency" unicode="&#xa4;" horiz-adv-x="1476" 
d="M1350 1153q0 -46 -30 -75t-73 -29q-98 0 -98 104q0 74 -78 158q-101 110 -262 110q-136 0 -244 -102t-157 -281h311q42 0 69 -23.5t27 -56.5q0 -79 -96 -79h-340q-6 -59 -6 -119q0 -45 2 -68h344q42 0 69 -23t27 -59q0 -80 -96 -80h-328q27 -208 184 -311
q116 -72 254 -72q136 0 281 86q27 17 51 17q40 0 66 -29q24 -35 24 -71q0 -53 -57 -87q-166 -94 -324 -94q-610 0 -680 561h-43q-98 0 -98 80q0 35 27.5 58.5t70.5 23.5h31q-2 23 -2 68q0 41 4 119h-33q-98 0 -98 79q0 33 28 56.5t70 23.5h58q58 279 239 428
q164 138 381 138q206 0 365 -138q160 -136 160 -313z" />
    <glyph glyph-name="yen" unicode="&#xa5;" horiz-adv-x="1323" 
d="M1245 1432l-289 -512h93q92 0 92 -91q0 -90 -92 -90h-195l-100 -180h295q92 0 92 -90t-92 -90h-297v-342q0 -41 -28.5 -68.5t-70.5 -27.5q-41 0 -70.5 28.5t-29.5 67.5v342h-297q-92 0 -92 90q0 38 27 64t65 26h295l-100 180h-195q-92 0 -92 90q0 38 27 64.5t65 26.5h92
l-291 512q-12 21 -12 45q0 41 28.5 69.5t69.5 28.5q58 0 88 -53l420 -729l422 729q27 53 86 53q39 0 68.5 -28.5t29.5 -69.5q0 -24 -12 -45z" />
    <glyph glyph-name="brokenbar" unicode="&#xa6;" horiz-adv-x="346" 
d="M242 1630v-682q0 -31 -21.5 -52.5t-52.5 -21.5t-52.5 21.5t-21.5 52.5v682q0 31 21.5 52.5t52.5 21.5t52.5 -21.5t21.5 -52.5zM242 621v-682q0 -31 -21.5 -52.5t-52.5 -21.5t-52.5 21.5t-21.5 52.5v682q0 31 21.5 52t52.5 21t52.5 -21t21.5 -52z" />
    <glyph glyph-name="section" unicode="&#xa7;" horiz-adv-x="1036" 
d="M995 258q0 -162 -120.5 -254t-333.5 -92h-49q-23 -2 -52 -2q-104 0 -186 24q-121 35 -121 105q0 36 24.5 62t59.5 26q13 0 31 -6q127 -39 266 -39q112 0 182 33q106 47 103 145q0 79 -66 127q-59 41 -145 41q-21 0 -76.5 2t-67.5 2q-160 3 -266 92q-112 93 -112 258
q0 153 135 252q-135 94 -135 277q0 162 151 262q134 84 295 84q163 0 285 -78q131 -82 131 -219q0 -76 -72 -82q-73 -9 -94 61q-41 152 -250 152q-98 0 -172 -51q-78 -54 -78 -127q0 -117 111 -152q56 -20 217 -20q174 0 284 -88q121 -100 121 -269q0 -170 -123 -258
q123 -95 123 -268zM799 788q0 79 -66 127q-59 41 -145 41q-2 0 -15.5 1t-41.5 2t-60 2q-88 -12 -148.5 -61.5t-60.5 -115.5q0 -115 107 -149q59 -21 213 -21q220 21 217 174z" />
    <glyph glyph-name="dieresis" unicode="&#xa8;" horiz-adv-x="1497" 
d="M1067 1743q0 -37 -26.5 -62.5t-63.5 -25.5t-62.5 25.5t-25.5 62.5t25.5 62.5t62.5 25.5t63.5 -25.5t26.5 -62.5zM698 1743q0 -37 -25.5 -62.5t-62.5 -25.5q-38 0 -64 25.5t-26 62.5t26 62.5t64 25.5q37 0 62.5 -25.5t25.5 -62.5z" />
    <glyph glyph-name="copyright" unicode="&#xa9;" horiz-adv-x="1234" 
d="M1116 1079q0 -217 -147 -370q-145 -154 -351 -154q-207 0 -352 154t-145 370q0 220 145 371q145 154 352 154q206 0 351 -154q147 -150 147 -371zM1036 1081q0 188 -123 320q-122 131 -295 131q-174 0 -296 -131q-121 -133 -121 -320q0 -186 121 -319q122 -131 296 -131
q173 0 295 131q123 132 123 319zM836 1298q0 -41 -39 -41q-9 0 -19 7q-68 51 -157 51q-94 0 -147.5 -68t-53.5 -174q0 -84 59 -155q62 -71 146 -74q61 0 114 18q20 4 21 4q41 0 41 -43q0 -42 -70 -57q-34 -6 -113 -6q-122 0 -204 88q-84 90 -84 225q0 134 82 232t206 98
q128 0 199 -68q19 -19 19 -37z" />
    <glyph glyph-name="ordfeminine" unicode="&#xaa;" horiz-adv-x="909" 
d="M836 811q0 -72 -78 -72q-41 0 -68 43q-75 -37 -164 -37q-203 0 -323 132q-107 119 -107 290q0 173 111 299q121 136 319 136q64 0 136 -29q20 33 65 33q74 0 74 -82v-537q0 -53 17.5 -110t17.5 -66zM649 922q-4 32 -4 75v428q-63 29 -119 29q-118 0 -195 -78.5
t-77 -197.5q0 -121 76 -203t196 -82q54 0 123 29z" />
    <glyph glyph-name="guillemotleft" unicode="&#xab;" horiz-adv-x="1112" 
d="M1024 948q0 -43 -35 -84l-194 -223l194 -231q33 -39 33 -76q0 -88 -74 -88q-45 0 -78 39l-252 280q-38 41 -38 76q0 36 38 74l252 276q36 39 78 39q76 0 76 -82zM535 948q0 -43 -35 -84l-195 -223l195 -231q32 -38 32 -76q0 -88 -75 -88q-43 0 -76 39l-252 280
q-39 42 -39 76q0 35 39 74l252 276q33 39 76 39q78 0 78 -82z" />
    <glyph glyph-name="logicalnot" unicode="&#xac;" horiz-adv-x="1026" 
d="M934 874v-530q0 -46 -28 -73t-70 -27q-40 0 -68.5 27.5t-28.5 72.5v350h-581q-97 0 -97 92q0 88 97 88h776z" />
    <glyph glyph-name="minus" unicode="&#xad;" horiz-adv-x="1085" 
d="M995 600q0 -88 -90 -88h-723q-92 0 -92 88q0 41 25.5 66.5t66.5 25.5h723q90 0 90 -92z" />
    <glyph glyph-name="minus" unicode="&#x2212;" horiz-adv-x="1085" 
d="M995 600q0 -88 -90 -88h-723q-92 0 -92 88q0 41 25.5 66.5t66.5 25.5h723q90 0 90 -92z" />
    <glyph glyph-name="registered" unicode="&#xae;" horiz-adv-x="1234" 
d="M1116 1079q0 -217 -147 -370q-145 -154 -351 -154q-207 0 -352 154t-145 370q0 220 145 371q145 154 352 154q206 0 351 -154q147 -150 147 -371zM1036 1081q0 188 -123 320q-122 131 -295 131q-174 0 -296 -131q-121 -133 -121 -320q0 -186 121 -319q122 -131 296 -131
q173 0 295 131q123 132 123 319zM676 1030l143 -172q18 -21 8 -51q-9 -27 -34 -27q-23 0 -62 45l-151 191q-24 0 -70 4v-193q0 -45 -43 -45h-2q-43 0 -43 45v514q0 50 43 50q13 0 29 -13q47 13 73 13q110 0 179 -52.5t69 -138.5q0 -123 -139 -170zM729 1200q0 107 -156 107
q-26 0 -63 -13v-188l31 -6q-7 23 8 35q25 18 53 -13l19 -20q108 15 108 98z" />
    <glyph glyph-name="overscore" unicode="&#xaf;" horiz-adv-x="1138" 
d="M973 1262q0 -32 -26 -54t-66 -22h-510q-40 0 -66 22t-26 54t26 54.5t66 22.5h510q40 0 66 -22.5t26 -54.5z" />
    <glyph glyph-name="overscore" unicode="&#x2c9;" horiz-adv-x="1138" 
d="M973 1262q0 -32 -26 -54t-66 -22h-510q-40 0 -66 22t-26 54t26 54.5t66 22.5h510q40 0 66 -22.5t26 -54.5z" />
    <glyph glyph-name="degree" unicode="&#xb0;" horiz-adv-x="690" 
d="M647 1294q0 -125 -88 -213t-213 -88t-213 88t-88 213t88 213t213 88t213 -88t88 -213zM502 1294q0 66 -45 111t-111 45t-111 -45t-45 -111t45 -110.5t111 -44.5t111 44.5t45 110.5z" />
    <glyph glyph-name="plusminus" unicode="&#xb1;" horiz-adv-x="1042" 
d="M975 780q0 -90 -92 -90h-267v-289q0 -41 -26.5 -66.5t-67.5 -25.5q-42 0 -69 25.5t-27 66.5v289h-264q-94 0 -94 90q0 41 26.5 66.5t67.5 25.5h264v291q0 39 27.5 65.5t68.5 26.5t67.5 -26.5t26.5 -65.5v-291h267q92 0 92 -92zM971 150q0 -89 -92 -89h-717q-92 0 -92 89
q0 41 25.5 66.5t66.5 25.5h717q92 0 92 -92z" />
    <glyph glyph-name="twosuperior" unicode="&#xb2;" horiz-adv-x="851" 
d="M731 1309q0 -129 -88 -217l-377 -377l406 2q59 0 59 -53q0 -50 -59 -50h-506q-68 -3 -68 64q0 35 33 61l391 394q86 83 86 172q2 71 -51 122.5t-133 51.5q-86 0 -143 -54q-56 -53 -56 -112q0 -57 -61 -60q-60 0 -60 60q0 107 91 192q90 84 225 84q131 0 221 -84t90 -196z
" />
    <glyph glyph-name="threesuperior" unicode="&#xb3;" horiz-adv-x="907" 
d="M788 881q0 -122 -100 -197q-101 -76 -250 -76h-114q-142 0 -142 70q0 47 51 47q17 0 25 -2q42 -10 94 -10h68q112 0 181 48.5t69 131.5q0 96 -103 143q-67 33 -149 33q-72 0 -72 49q0 44 70 47q75 3 125 39q69 46 69 129q0 140 -170 140q-96 0 -159 -66q-45 -48 -45 -94
q0 -64 -60 -64q-61 0 -61 64q0 105 96 186q94 82 219 82q106 0 191 -61q100 -69 100 -181q0 -49 -29 -112q-35 -68 -80 -94q176 -59 176 -252z" />
    <glyph glyph-name="acute" unicode="&#xb4;" horiz-adv-x="1300" 
d="M868 1876q0 -47 -59 -74l-287 -131q-30 -10 -49 -10q-74 0 -74 70q0 52 62 79l289 129q26 11 43 11q31 0 53 -21.5t22 -52.5z" />
    <glyph glyph-name="mu" unicode="&#xb5;" horiz-adv-x="1136" 
d="M1022 954v-483q0 -520 -479 -520q-55 0 -119 20q-86 24 -129 70v0v0v1v0v0v0v0v0v0v0v0v0v0v0v0v0v0v0v0v-1v0v0v0v0v0v-1v0v0v0v-1v0v0v0v-1v0v0v-1v0v0v-1v0v0v-1v0v-1v0v0v-1v0v-1v0v-1v0v-1v0v-1v0v-1v0v-1v0v-1v0v-1v0v-1v0v-1v0v-1v0v-1v0v-1v0v-1v0v-1v0v-1v-1v0
v-1v0v-1v-1v0v-1v-1v0v-1v-1v0v-1v-1v-1v0v-1v-1v-1v0v-1v-1v-1v-1v-1v0v-1v-1v-1v-1v-1v-1v-1v-1v-1v-1v-1v-1v-1v-1v-1v-1v-1v-1v-1v-1v-1v-1v-1v-1v-1v-1v-1v-1v-1v-1v-1v-1v-1v-1v-1v-1v-1v-1v-1v-1v-1v-1v-1v-1v-1v-1v-1v-1v-1v-1v-1v-1v-1v-1v-1v-1v-1v-1v-1v-1v-1v-1
v-1v-1v-1v-1v-1v-1v-1v-1v-1v-1v-1v-1v-1v-1v-1v-1v-1v-1v-1v-1v-1v-1v-1v-1v-1v-1v-1v-1v-1v-1v-1v-1v-1v-1v-1v-1v-1v-1v-1v-1v-1v-1v-1v-1v-1v-1v-1v-1v-1v-1v-1v-1v-1v-1v-1v-1v-1v-1v-1v-1v-1v-1v-1v-1v-1v-1v-1v-1v-1v-1v-1v-1v-1v-1v-1v-1v-1v-1v-1v-1v-1v-1v-1v-1
v-1v-1v-1v-1v-1v-1v-1v-1v-1v-1v-1v-1v-1v-1v-1v-1v-1v-1v-1v-1v-1v-1v-1v-1v-1v-1v-1v-1v-1v-1v-1v-1v-1v-1v-1v-1v-1v-1v-1v-1v-1v-1v-1v-1v-1v-1v-1v-1v-1v-1v-1v-1v-1v-1v-1v-1v-1v-1v-1v-1v-1v-1v-1v-1v-1v-1v-1v-1v-1v-1v-1v-1v-1v-1v-1v-1v-1v-1v-1v-1v-1v-1v-1v-1
v-1v-1v-1v-1v-1v-1v-1v-1v-1v-1v-1v-1v-1v-1v-1v-1v-1v-1v-1v-1v-1v-1v-1v-1v-1v-1v-1v-1v-1v-1v-1v-1v-1v-1v-1v-1v-1v-1v-1v-1v-1v-1v-1v-1v-1v-1v-1v-1v-1v-1v-1v-1v-1v-1v-1v-1v-1v-1v-1v-1v-1v-1v-1v-1v-1v-1v-1v-1v-1v-1v-1v-1v-1v-1v-1v-1v-1v-1v-1v-1v-1v-1v-1v-1
v-1v-1v-1v-1v-1v-1v-1v-1v-1v-1v-1v-1v-1v-1v-1v-1v-1v-1v-1v-1v-1v-1v-1v-1v-1v-1v-1v-1v-1v-1v-1v-1v-1v-1v-1v-1v-1v-1v-1v-1v-1v-1v-1v-1v-1v-1v-1v-1v-1v-1v-1v-1v-1v-1v-1v-1v-1v-1v-1v-1v-1v-1v-1v-1v-1v-1v-1v-1v-1v-1v-1v-1v-1v-1v-1v-1v-1v-1v-1v-1v-1v-1v-1v-1
v-1v-1v-1v-1v-1v-1v-1v-1v-1v-1v-1v-1v-1v-1v-1v-1v-1v-1v-1v-1v-1v-1v-1v-1v-1v-1v-1v-1v-1v-1v-1v-1v-1v-1v-10q0 -99 -88 -99t-88 99l-2 1392q0 41 25 68.5t61 27.5q37 0 64.5 -27.5t27.5 -68.5v-741q100 -100 260 -103q148 -3 225 127q66 114 66 291v432q0 38 25.5 64
t62.5 26t62.5 -26t25.5 -64z" />
    <glyph glyph-name="mu" unicode="&#x3bc;" horiz-adv-x="1136" 
d="M1022 954v-483q0 -520 -479 -520q-55 0 -119 20q-86 24 -129 70v0v0v1v0v0v0v0v0v0v0v0v0v0v0v0v0v0v0v0v-1v0v0v0v0v0v-1v0v0v0v-1v0v0v0v-1v0v0v-1v0v0v-1v0v0v-1v0v-1v0v0v-1v0v-1v0v-1v0v-1v0v-1v0v-1v0v-1v0v-1v0v-1v0v-1v0v-1v0v-1v0v-1v0v-1v0v-1v0v-1v0v-1v-1v0
v-1v0v-1v-1v0v-1v-1v0v-1v-1v0v-1v-1v-1v0v-1v-1v-1v0v-1v-1v-1v-1v-1v0v-1v-1v-1v-1v-1v-1v-1v-1v-1v-1v-1v-1v-1v-1v-1v-1v-1v-1v-1v-1v-1v-1v-1v-1v-1v-1v-1v-1v-1v-1v-1v-1v-1v-1v-1v-1v-1v-1v-1v-1v-1v-1v-1v-1v-1v-1v-1v-1v-1v-1v-1v-1v-1v-1v-1v-1v-1v-1v-1v-1v-1v-1
v-1v-1v-1v-1v-1v-1v-1v-1v-1v-1v-1v-1v-1v-1v-1v-1v-1v-1v-1v-1v-1v-1v-1v-1v-1v-1v-1v-1v-1v-1v-1v-1v-1v-1v-1v-1v-1v-1v-1v-1v-1v-1v-1v-1v-1v-1v-1v-1v-1v-1v-1v-1v-1v-1v-1v-1v-1v-1v-1v-1v-1v-1v-1v-1v-1v-1v-1v-1v-1v-1v-1v-1v-1v-1v-1v-1v-1v-1v-1v-1v-1v-1v-1v-1
v-1v-1v-1v-1v-1v-1v-1v-1v-1v-1v-1v-1v-1v-1v-1v-1v-1v-1v-1v-1v-1v-1v-1v-1v-1v-1v-1v-1v-1v-1v-1v-1v-1v-1v-1v-1v-1v-1v-1v-1v-1v-1v-1v-1v-1v-1v-1v-1v-1v-1v-1v-1v-1v-1v-1v-1v-1v-1v-1v-1v-1v-1v-1v-1v-1v-1v-1v-1v-1v-1v-1v-1v-1v-1v-1v-1v-1v-1v-1v-1v-1v-1v-1v-1
v-1v-1v-1v-1v-1v-1v-1v-1v-1v-1v-1v-1v-1v-1v-1v-1v-1v-1v-1v-1v-1v-1v-1v-1v-1v-1v-1v-1v-1v-1v-1v-1v-1v-1v-1v-1v-1v-1v-1v-1v-1v-1v-1v-1v-1v-1v-1v-1v-1v-1v-1v-1v-1v-1v-1v-1v-1v-1v-1v-1v-1v-1v-1v-1v-1v-1v-1v-1v-1v-1v-1v-1v-1v-1v-1v-1v-1v-1v-1v-1v-1v-1v-1v-1
v-1v-1v-1v-1v-1v-1v-1v-1v-1v-1v-1v-1v-1v-1v-1v-1v-1v-1v-1v-1v-1v-1v-1v-1v-1v-1v-1v-1v-1v-1v-1v-1v-1v-1v-1v-1v-1v-1v-1v-1v-1v-1v-1v-1v-1v-1v-1v-1v-1v-1v-1v-1v-1v-1v-1v-1v-1v-1v-1v-1v-1v-1v-1v-1v-1v-1v-1v-1v-1v-1v-1v-1v-1v-1v-1v-1v-1v-1v-1v-1v-1v-1v-1v-1
v-1v-1v-1v-1v-1v-1v-1v-1v-1v-1v-1v-1v-1v-1v-1v-1v-1v-1v-1v-1v-1v-1v-1v-1v-1v-1v-1v-1v-1v-1v-1v-1v-1v-1v-10q0 -99 -88 -99t-88 99l-2 1392q0 41 25 68.5t61 27.5q37 0 64.5 -27.5t27.5 -68.5v-741q100 -100 260 -103q148 -3 225 127q66 114 66 291v432q0 38 25.5 64
t62.5 26t62.5 -26t25.5 -64z" />
    <glyph glyph-name="paragraph" unicode="&#xb6;" horiz-adv-x="1255" 
d="M1163 1491v-1454q0 -41 -26.5 -68.5t-65.5 -27.5q-54 0 -104 96v1347q-73 27 -140 35v-1370q0 -44 -28.5 -75t-69.5 -31t-69.5 31t-28.5 75v473q-231 27 -375 150q-164 138 -164 370q0 260 209 416q191 144 463 144q116 0 229 -39q21 41 74 41q96 0 96 -113zM631 698v713
q-152 -27 -242 -111q-106 -97 -106 -253q0 -153 108 -248q96 -80 240 -101z" />
    <glyph glyph-name="middot" unicode="&#xb7;" horiz-adv-x="417" 
d="M350 735q0 -57 -41 -98t-100 -41q-57 0 -99 41t-42 98q0 59 41.5 100.5t99.5 41.5q60 0 100.5 -41t40.5 -101z" />
    <glyph glyph-name="middot" unicode="&#x2219;" horiz-adv-x="417" 
d="M350 735q0 -57 -41 -98t-100 -41q-57 0 -99 41t-42 98q0 59 41.5 100.5t99.5 41.5q60 0 100.5 -41t40.5 -101z" />
    <glyph glyph-name="cedilla" unicode="&#xb8;" horiz-adv-x="1300" 
d="M958 -315q0 -183 -155 -183h-135q-64 0 -64 54q0 51 60 51h94q76 0 76 74q0 60 -23 86q-16 16 -68 34l-26 9q-70 24 -70 108v47q3 62 60 62q61 0 61 -62v-35q0 -23 31 -32q159 -56 159 -213z" />
    <glyph glyph-name="onesuperior" unicode="&#xb9;" horiz-adv-x="688" 
d="M602 680q0 -55 -72 -55h-383q-71 0 -71 55t71 55h129v727h-129q-71 0 -71 56q0 57 71 57h185q63 0 63 -62v-778h135q72 0 72 -55z" />
    <glyph glyph-name="ordmasculine" unicode="&#xba;" horiz-adv-x="935" 
d="M852 1165q0 -189 -111 -315q-112 -127 -274 -127t-274 127q-109 127 -109 315q0 187 109 314q110 125 274 125t274 -125q111 -126 111 -314zM694 1157q0 125 -63 209q-61 88 -164 88t-164 -88q-61 -85 -61 -209t62 -205.5t163 -81.5t164 81.5t63 205.5z" />
    <glyph glyph-name="guillemotright" unicode="&#xbb;" horiz-adv-x="1112" 
d="M1024 641q0 -34 -39 -76l-252 -280q-33 -39 -76 -39q-75 0 -75 88q0 38 32 76l195 231l-195 223q-34 40 -34 84q0 82 77 82q43 0 76 -39l252 -276q39 -39 39 -74zM535 641q0 -34 -39 -76l-252 -280q-33 -39 -78 -39q-74 0 -74 88q0 37 33 76l194 231l-194 223
q-35 41 -35 84q0 82 76 82q42 0 78 -39l252 -276q39 -39 39 -74z" />
    <glyph glyph-name="onequarter" unicode="&#xbc;" horiz-adv-x="1691" 
d="M1569 326q0 -56 -70 -56h-49v-245q0 -52 -53 -52q-24 0 -45 16t-21 36v245h-401q-60 0 -60 56q0 36 35 51l391 538q38 50 88 50q66 0 66 -62v-522h49q70 -3 70 -55zM1151 1341l-549 -1185q-21 -43 -61 -43q-56 0 -56 55q0 17 11 43l551 1186q21 43 63 43q53 0 53 -51
q0 -24 -12 -48zM602 680q0 -55 -72 -55h-383q-71 0 -71 55t71 55h129v727h-129q-71 0 -71 56q0 57 71 57h185q63 0 63 -62v-778h135q72 0 72 -55zM1331 381l2 407l-282 -407h280z" />
    <glyph glyph-name="onehalf" unicode="&#xbd;" horiz-adv-x="1740" 
d="M1632 698q0 -129 -88 -217l-375 -377l404 2q59 0 59 -53q0 -49 -59 -49h-506q-68 -3 -68 64q0 35 33 61l391 393q85 82 88 172q0 71 -53 122.5t-133 51.5q-87 0 -143 -53t-56 -113q0 -56 -59 -59q-61 0 -61 59q0 109 90 193q93 84 225 84q131 0 221 -84t90 -197z
M1151 1341l-549 -1185q-21 -43 -61 -43q-56 0 -56 55q0 17 11 43l551 1186q21 43 63 43q53 0 53 -51q0 -24 -12 -48zM602 680q0 -55 -72 -55h-383q-71 0 -71 55t71 55h129v727h-129q-71 0 -71 56q0 57 71 57h185q63 0 63 -62v-778h135q72 0 72 -55z" />
    <glyph glyph-name="threequarters" unicode="&#xbe;" horiz-adv-x="1800" 
d="M1686 326q0 -56 -72 -56h-47v-245q0 -52 -54 -52q-25 0 -45 16t-20 36v245h-404q-57 0 -57 56q0 36 35 51l391 538q35 50 86 50q68 0 68 -62v-522h47q72 -3 72 -55zM1268 1341l-551 -1185q-21 -43 -60 -43q-55 0 -55 55q0 20 10 43l549 1186q21 43 64 43q55 0 55 -51
q0 -24 -12 -48zM788 881q0 -122 -100 -197q-101 -76 -250 -76h-114q-142 0 -142 70q0 47 51 47q17 0 25 -2q42 -10 94 -10h68q112 0 181 48.5t69 131.5q0 96 -103 143q-67 33 -149 33q-72 0 -72 49q0 44 70 47q75 3 125 39q69 46 69 129q0 140 -170 140q-96 0 -159 -66
q-45 -48 -45 -94q0 -64 -60 -64q-61 0 -61 64q0 105 96 186q94 82 219 82q106 0 191 -61q100 -69 100 -181q0 -49 -29 -112q-35 -68 -80 -94q176 -59 176 -252zM1448 381l2 407l-283 -407h281z" />
    <glyph glyph-name="questiondown" unicode="&#xbf;" horiz-adv-x="1384" 
d="M995 1487q0 -49 -34 -83t-82 -34q-50 0 -84.5 34t-34.5 83q0 48 35 82.5t84 34.5q47 0 81.5 -35t34.5 -82zM1241 406q3 -181 -162 -326q-162 -143 -374 -143q-235 0 -398 141q-160 142 -160 336q0 210 124 321t354 111h55q98 0 98 115v169q0 49 29 77t72 28t70.5 -28
t27.5 -77v-200q0 -264 -258 -264h-86q-275 0 -275 -263q0 -108 101 -196q103 -86 239 -86q144 0 248 96q92 86 92 191q3 91 103 94q100 0 100 -96z" />
    <glyph glyph-name="Agrave" unicode="&#xc0;" horiz-adv-x="1423" 
d="M940 1700q-22 0 -49 12l-287 129q-59 27 -59 76q0 29 22.5 51.5t53.5 22.5q17 0 43 -11l288 -131q62 -27 62 -80q0 -69 -74 -69zM883 1497l469 -1378q10 -33 10 -58q0 -93 -96 -90q-67 0 -97 88l-161 459h-568l-198 -479q-38 -68 -105 -68q-30 0 -53 25.5t-23 56.5
q0 12 7 33l176 432q-103 0 -103 90q0 86 111 86h67l326 813q42 97 119 97q85 0 119 -107zM510 694h440l-200 602z" />
    <glyph glyph-name="Aacute" unicode="&#xc1;" horiz-adv-x="1423" 
d="M993 1896q0 -46 -59 -73l-287 -131q-29 -11 -49 -11q-72 0 -72 70q0 51 62 78l286 131q23 10 44 10q30 0 52.5 -22t22.5 -52zM883 1497l469 -1378q10 -33 10 -58q0 -93 -96 -90q-67 0 -97 88l-161 459h-568l-198 -479q-38 -68 -105 -68q-30 0 -53 25.5t-23 56.5
q0 12 7 33l176 432q-103 0 -103 90q0 86 111 86h67l326 813q42 97 119 97q85 0 119 -107zM510 694h440l-200 602z" />
    <glyph glyph-name="Acircumflex" unicode="&#xc2;" horiz-adv-x="1423" 
d="M1006 1724q0 -51 -56 -51q-25 0 -55 23l-133 114l-137 -114q-26 -23 -50 -23q-59 0 -59 51q0 32 25 54l170 153q28 25 51 25q21 0 49 -25l168 -153q27 -24 27 -54zM883 1497l469 -1378q10 -33 10 -58q0 -93 -96 -90q-67 0 -97 88l-161 459h-568l-198 -479
q-38 -68 -105 -68q-30 0 -53 25.5t-23 56.5q0 12 7 33l176 432q-103 0 -103 90q0 86 111 86h67l326 813q42 97 119 97q85 0 119 -107zM510 694h440l-200 602z" />
    <glyph glyph-name="Atilde" unicode="&#xc3;" horiz-adv-x="1423" 
d="M1083 1819q3 -39 -57 -80q-59 -41 -121 -41q-82 0 -151 57q-52 43 -97 43q-32 0 -75 -37q-26 -20 -58 -20q-49 0 -49 55q0 38 60 80q61 43 127 43q77 0 137 -51q64 -49 98 -49q39 0 72 26q40 29 57 29q57 0 57 -55zM883 1497l469 -1378q10 -33 10 -58q0 -93 -96 -90
q-67 0 -97 88l-161 459h-568l-198 -479q-38 -68 -105 -68q-30 0 -53 25.5t-23 56.5q0 12 7 33l176 432q-103 0 -103 90q0 86 111 86h67l326 813q42 97 119 97q85 0 119 -107zM510 694h440l-200 602z" />
    <glyph glyph-name="Adieresis" unicode="&#xc4;" horiz-adv-x="1423" 
d="M1036 1761q0 -37 -26.5 -62.5t-63.5 -25.5t-62.5 25.5t-25.5 62.5t25.5 62.5t62.5 25.5t63.5 -25.5t26.5 -62.5zM668 1761q0 -37 -26.5 -62.5t-63.5 -25.5t-63 25.5t-26 62.5t26 62.5t63 25.5t63.5 -25.5t26.5 -62.5zM883 1497l469 -1378q10 -33 10 -58q0 -93 -96 -90
q-67 0 -97 88l-161 459h-568l-198 -479q-38 -68 -105 -68q-30 0 -53 25.5t-23 56.5q0 12 7 33l176 432q-103 0 -103 90q0 86 111 86h67l326 813q42 97 119 97q85 0 119 -107zM510 694h440l-200 602z" />
    <glyph glyph-name="Aring" unicode="&#xc5;" horiz-adv-x="1423" 
d="M979 1876q0 -88 -62.5 -149.5t-150.5 -61.5q-90 0 -152.5 61.5t-62.5 149.5t62.5 150.5t152.5 62.5q88 0 150.5 -62.5t62.5 -150.5zM883 1497l469 -1378q10 -33 10 -58q0 -93 -96 -90q-67 0 -97 88l-161 459h-568l-198 -479q-38 -68 -105 -68q-30 0 -53 25.5t-23 56.5
q0 12 7 33l176 432q-103 0 -103 90q0 86 111 86h67l326 813q42 97 119 97q85 0 119 -107zM868 1876q0 42 -30 72t-72 30q-43 0 -73.5 -29.5t-30.5 -72.5q0 -41 30.5 -70.5t73.5 -29.5q41 0 71.5 29.5t30.5 70.5zM510 694h440l-200 602z" />
    <glyph glyph-name="AE" unicode="&#xc6;" horiz-adv-x="2025" 
d="M1946 96q0 -39 -32 -67.5t-79 -28.5h-479q-32 -32 -78 -29q-67 0 -94 88l-160 457h-573l-189 -477q-38 -68 -104 -68q-30 0 -52 25t-22 57q0 9 4 33q2 4 17.5 42.5t35 88t55 137t72.5 181.5q-41 0 -72.5 26.5t-31.5 61.5q0 86 119 86l63 2l318 772q38 92 116 92h1051
q47 0 84 -29q27 -27 27 -65q0 -88 -111 -88h-901l176 -519h647q52 0 83.5 -27t31.5 -65t-31.5 -64t-83.5 -26h-586l172 -502h496q47 0 79 -27.5t32 -66.5zM530 700h435l-199 572z" />
    <glyph glyph-name="Ccedilla" unicode="&#xc7;" horiz-adv-x="1300" 
d="M1237 1153q0 -46 -30 -75t-72 -29q-97 0 -97 104q0 75 -80 158q-101 110 -262 110q-187 0 -307 -172q-129 -181 -129 -489q0 -610 488 -613q112 0 249 76q27 15 56 15q36 0 63 -28t27 -65q0 -52 -51 -86q-143 -87 -349 -90q2 -4 2 -12v-35q0 -24 31 -33q160 -56 160 -213
q0 -182 -156 -182h-135q-65 0 -65 53q0 54 61 54l94 -2q76 0 76 73q0 61 -25 86q-18 18 -67 35l-27 8q-70 24 -67 111v45q0 12 2 18q-561 58 -564 785q0 413 201 643q177 201 449 201q205 0 364 -138q160 -136 160 -313z" />
    <glyph glyph-name="Egrave" unicode="&#xc8;" horiz-adv-x="1288" 
d="M846 1700q-25 0 -49 12l-289 129q-57 26 -57 76q0 29 22 51.5t51 22.5q16 0 45 -11l287 -131q62 -27 62 -80q0 -69 -72 -69zM1200 1479q0 -82 -121 -82h-729v-525h635q52 0 85.5 -26t33.5 -68q0 -84 -119 -84h-635v-305q0 -211 232 -211h485q119 0 119 -86q0 -42 -34 -67
t-85 -25h-549q-136 0 -237 66q-127 83 -127 247v379q-84 15 -84 90q0 72 84 90v572q0 131 133 131h792q121 0 121 -96z" />
    <glyph glyph-name="Eacute" unicode="&#xc9;" horiz-adv-x="1277" 
d="M905 1876q0 -47 -59 -74l-287 -131q-30 -10 -49 -10q-74 0 -74 70q0 52 64 79l286 129q26 11 43 11q31 0 53.5 -21.5t22.5 -52.5zM1200 1479q0 -82 -121 -82h-729v-525h635q52 0 85.5 -26t33.5 -68q0 -84 -119 -84h-635v-305q0 -211 232 -211h485q119 0 119 -86
q0 -42 -34 -67t-85 -25h-549q-136 0 -237 66q-127 83 -127 247v379q-84 15 -84 90q0 72 84 90v572q0 131 133 131h792q121 0 121 -96z" />
    <glyph glyph-name="Ecircumflex" unicode="&#xca;" horiz-adv-x="1288" 
d="M928 1724q0 -51 -56 -51q-25 0 -55 23l-133 114l-135 -114q-30 -23 -51 -23q-60 0 -60 51q0 32 25 54l170 153q28 25 51 25t51 -25l166 -153q27 -24 27 -54zM1200 1479q0 -82 -121 -82h-729v-525h635q52 0 85.5 -26t33.5 -68q0 -84 -119 -84h-635v-305q0 -211 232 -211
h485q119 0 119 -86q0 -42 -34 -67t-85 -25h-549q-136 0 -237 66q-127 83 -127 247v379q-84 15 -84 90q0 72 84 90v572q0 131 133 131h792q121 0 121 -96z" />
    <glyph glyph-name="Edieresis" unicode="&#xcb;" horiz-adv-x="1288" 
d="M956 1763q0 -37 -25.5 -63.5t-62.5 -26.5t-63.5 26.5t-26.5 63.5q0 35 26.5 61.5t63.5 26.5q36 0 62 -26t26 -62zM588 1763q0 -37 -25.5 -63.5t-62.5 -26.5t-63.5 26.5t-26.5 63.5q0 35 26.5 61.5t63.5 26.5q36 0 62 -26t26 -62zM1200 1479q0 -82 -121 -82h-729v-525h635
q52 0 85.5 -26t33.5 -68q0 -84 -119 -84h-635v-305q0 -211 232 -211h485q119 0 119 -86q0 -42 -34 -67t-85 -25h-549q-136 0 -237 66q-127 83 -127 247v379q-84 15 -84 90q0 72 84 90v572q0 131 133 131h792q121 0 121 -96z" />
    <glyph glyph-name="Igrave" unicode="&#xcc;" horiz-adv-x="1050" 
d="M705 1720q-21 0 -50 13l-286 129q-60 28 -60 75q0 29 22.5 50.5t53.5 21.5q20 0 43 -10l289 -129q61 -27 61 -80q0 -70 -73 -70zM965 82q0 -90 -111 -90h-657q-111 0 -111 90q0 86 111 86h223v1229h-213q-111 0 -111 86q0 92 111 92h637q110 0 110 -94q0 -84 -110 -84
h-228v-1229h238q111 0 111 -86z" />
    <glyph glyph-name="Iacute" unicode="&#xcd;" horiz-adv-x="1050" 
d="M758 1896q0 -45 -60 -73l-286 -131q-29 -11 -50 -11q-71 0 -71 70q0 51 61 78l287 131q23 10 43 10q31 0 53.5 -22.5t22.5 -51.5zM965 82q0 -90 -111 -90h-657q-111 0 -111 90q0 86 111 86h223v1229h-213q-111 0 -111 86q0 92 111 92h637q110 0 110 -94q0 -84 -110 -84
h-228v-1229h238q111 0 111 -86z" />
    <glyph glyph-name="Icircumflex" unicode="&#xce;" horiz-adv-x="1050" 
d="M768 1724q0 -51 -57 -51q-26 0 -56 23l-133 114l-135 -114q-30 -23 -49 -23q-62 0 -62 51q0 32 25 54l172 153q28 25 49 25q23 0 51 -25l168 -153q27 -24 27 -54zM965 82q0 -90 -111 -90h-657q-111 0 -111 90q0 86 111 86h223v1229h-213q-111 0 -111 86q0 92 111 92h637
q110 0 110 -94q0 -84 -110 -84h-228v-1229h238q111 0 111 -86z" />
    <glyph glyph-name="Idieresis" unicode="&#xcf;" horiz-adv-x="1050" 
d="M797 1763q0 -37 -25.5 -63.5t-62.5 -26.5t-64 26.5t-27 63.5q0 35 27 61.5t64 26.5q36 0 62 -26t26 -62zM428 1763q0 -37 -25.5 -63.5t-62.5 -26.5t-63.5 26.5t-26.5 63.5q0 35 26.5 61.5t63.5 26.5q36 0 62 -26t26 -62zM965 82q0 -90 -111 -90h-657q-111 0 -111 90
q0 86 111 86h223v1229h-213q-111 0 -111 86q0 92 111 92h637q110 0 110 -94q0 -84 -110 -84h-228v-1229h238q111 0 111 -86z" />
    <glyph glyph-name="Eth" unicode="&#xd0;" horiz-adv-x="1460" 
d="M1335 762q0 -358 -221 -576q-217 -217 -575 -217q-202 0 -299 72q-115 83 -115 281v374q-42 2 -71 27t-29 61q0 35 29 59.5t71 26.5v617q0 117 92 117q61 0 80 -54q102 54 317 54q324 0 531 -269q190 -245 190 -573zM1139 758q0 258 -131 450q-151 219 -394 219
q-173 0 -292 -61v-496h133q43 0 74.5 -25.5t31.5 -60.5q0 -36 -31.5 -62t-74.5 -26h-133v-399q0 -152 284 -152q230 0 387 195q146 184 146 418z" />
    <glyph glyph-name="Ntilde" unicode="&#xd1;" horiz-adv-x="1630" 
d="M1028 1798q3 -39 -57 -80q-59 -41 -121 -41q-82 0 -152 58q-52 43 -96 43q-32 0 -76 -35q-30 -23 -57 -23q-51 0 -51 56q0 39 61 82t127 43q76 0 137 -52q64 -52 99 -49q27 0 72.5 26.5t56.5 26.5q57 0 57 -55zM1313 1507l2 -1439q0 -42 -29.5 -70.5t-68.5 -28.5
q-57 0 -84 43l-816 1217v-1161q0 -41 -28.5 -70t-67.5 -29q-41 0 -69.5 29t-28.5 70v1437q0 97 96 97q55 0 76 -35l825 -1227v1167q0 39 28 68t69 29t68.5 -28t27.5 -69z" />
    <glyph glyph-name="Ograve" unicode="&#xd2;" horiz-adv-x="1634" 
d="M995 1700q-25 0 -49 12l-287 129q-59 27 -59 76q0 29 22.5 51.5t51.5 22.5q19 0 45 -11l287 -131q61 -27 61 -80q0 -69 -72 -69zM1538 778q0 -342 -209 -577q-209 -232 -512 -232t-512 232q-209 235 -209 577q0 348 209 586q211 240 512 240q303 0 512 -240
q209 -238 209 -586zM1346 780q0 264 -150 449q-149 186 -379 186t-379 -186q-149 -183 -149 -449q0 -264 149 -444q150 -178 379 -178q232 0 379 178q150 182 150 444z" />
    <glyph glyph-name="Oacute" unicode="&#xd3;" horiz-adv-x="1634" 
d="M1018 1896q0 -45 -60 -73l-286 -131q-29 -11 -49 -11q-72 0 -72 70q0 51 61 78l287 131q23 10 43 10q31 0 53.5 -22.5t22.5 -51.5zM1538 778q0 -342 -209 -577q-209 -232 -512 -232t-512 232q-209 235 -209 577q0 348 209 586q211 240 512 240q303 0 512 -240
q209 -238 209 -586zM1346 780q0 264 -150 449q-149 186 -379 186t-379 -186q-149 -183 -149 -449q0 -264 149 -444q150 -178 379 -178q232 0 379 178q150 182 150 444z" />
    <glyph glyph-name="Ocircumflex" unicode="&#xd4;" horiz-adv-x="1634" 
d="M1065 1724q0 -51 -57 -51q-26 0 -56 23l-133 114l-135 -114q-30 -23 -49 -23q-62 0 -62 51q0 32 25 54l172 153q28 25 49 25q23 0 51 -25l168 -153q27 -24 27 -54zM1538 778q0 -342 -209 -577q-209 -232 -512 -232t-512 232q-209 235 -209 577q0 348 209 586
q211 240 512 240q303 0 512 -240q209 -238 209 -586zM1346 780q0 264 -150 449q-149 186 -379 186t-379 -186q-149 -183 -149 -449q0 -264 149 -444q150 -178 379 -178q232 0 379 178q150 182 150 444z" />
    <glyph glyph-name="Otilde" unicode="&#xd5;" horiz-adv-x="1634" 
d="M1128 1819q0 -39 -59 -80t-119 -41q-82 0 -151 57q-52 43 -99 43q-30 0 -73 -37q-26 -20 -58 -20q-51 0 -51 55q0 38 60 80q61 43 129 43q74 0 137 -51q64 -49 96 -49q41 0 74 26q37 29 57 29q57 0 57 -55zM1538 778q0 -342 -209 -577q-209 -232 -512 -232t-512 232
q-209 235 -209 577q0 348 209 586q211 240 512 240q303 0 512 -240q209 -238 209 -586zM1346 780q0 264 -150 449q-149 186 -379 186t-379 -186q-149 -183 -149 -449q0 -264 149 -444q150 -178 379 -178q232 0 379 178q150 182 150 444z" />
    <glyph glyph-name="Odieresis" unicode="&#xd6;" horiz-adv-x="1634" 
d="M1087 1761q0 -37 -25.5 -62.5t-62.5 -25.5t-63.5 25.5t-26.5 62.5t26.5 62.5t63.5 25.5t62.5 -25.5t25.5 -62.5zM719 1761q0 -37 -25.5 -62.5t-62.5 -25.5t-63.5 25.5t-26.5 62.5t26.5 62.5t63.5 25.5t62.5 -25.5t25.5 -62.5zM1538 778q0 -342 -209 -577
q-209 -232 -512 -232t-512 232q-209 235 -209 577q0 348 209 586q211 240 512 240q303 0 512 -240q209 -238 209 -586zM1346 780q0 264 -150 449q-149 186 -379 186t-379 -186q-149 -183 -149 -449q0 -264 149 -444q150 -178 379 -178q232 0 379 178q150 182 150 444z" />
    <glyph glyph-name="multiply" unicode="&#xd7;" horiz-adv-x="1017" 
d="M879 889q0 -45 -35 -80l-207 -207l207 -207q35 -35 35 -82q0 -82 -82 -82q-46 0 -80 37l-207 207l-207 -207q-34 -37 -82 -37q-82 0 -82 82q0 48 37 82l207 207l-207 207q-37 34 -37 80q0 82 82 82q47 0 82 -35l207 -207l207 207q35 35 80 35q82 0 82 -82z" />
    <glyph glyph-name="Oslash" unicode="&#xd8;" horiz-adv-x="1634" 
d="M1538 778q0 -342 -209 -577q-209 -232 -512 -232q-132 0 -262 54l-29 -62q-30 -67 -92 -67q-65 0 -65 79q0 31 12 58l33 71q-149 110 -233.5 287t-84.5 389q0 348 209 586q211 240 512 240q141 0 266 -58l23 45q30 68 90 68q68 0 68 -80q0 -30 -15 -57l-26 -58
q147 -114 229 -288q86 -186 86 -398zM1346 780q0 320 -203 508l-510 -1095q90 -35 184 -35q232 0 379 178q150 182 150 444zM496 279l510 1097q-85 39 -189 39q-230 0 -379 -186q-149 -183 -149 -449q0 -318 207 -501z" />
    <glyph glyph-name="Ugrave" unicode="&#xd9;" horiz-adv-x="1507" 
d="M915 1700q-25 0 -49 12l-286 129q-60 28 -60 76q0 29 22.5 51.5t51.5 22.5q19 0 45 -11l287 -131q61 -27 61 -80q0 -69 -72 -69zM1372 1505v-921q0 -253 -178 -434t-434 -181q-257 0 -441 181q-182 182 -182 434v921q0 99 96 99q97 0 97 -101v-919q0 -171 129 -291
q130 -121 301 -121t295 121q125 119 125 291v921q0 99 100 99q38 0 65 -29t27 -70z" />
    <glyph glyph-name="Uacute" unicode="&#xda;" horiz-adv-x="1507" 
d="M997 1896q0 -46 -59 -73l-287 -131q-29 -11 -49 -11q-72 0 -72 70q0 51 62 78l287 131q23 10 45 10q29 0 51 -22.5t22 -51.5zM1372 1505v-921q0 -253 -178 -434t-434 -181q-257 0 -441 181q-182 182 -182 434v921q0 99 96 99q97 0 97 -101v-919q0 -171 129 -291
q130 -121 301 -121t295 121q125 119 125 291v921q0 99 100 99q38 0 65 -29t27 -70z" />
    <glyph glyph-name="Ucircumflex" unicode="&#xdb;" horiz-adv-x="1507" 
d="M997 1735q0 -54 -55 -54q-27 0 -55 25l-133 115l-136 -115q-30 -23 -51 -23q-59 0 -59 52q0 32 24 53l173 154q27 24 49 24q24 0 51 -24l168 -154q24 -24 24 -53zM1372 1505v-921q0 -253 -178 -434t-434 -181q-257 0 -441 181q-182 182 -182 434v921q0 99 96 99
q97 0 97 -101v-919q0 -171 129 -291q130 -121 301 -121t295 121q125 119 125 291v921q0 99 100 99q38 0 65 -29t27 -70z" />
    <glyph glyph-name="Udieresis" unicode="&#xdc;" horiz-adv-x="1507" 
d="M1024 1761q0 -37 -26.5 -62.5t-63.5 -25.5t-62.5 25.5t-25.5 62.5t25.5 62.5t62.5 25.5t63.5 -25.5t26.5 -62.5zM655 1761q0 -37 -26.5 -62.5t-63.5 -25.5t-62.5 25.5t-25.5 62.5t25.5 62.5t62.5 25.5t63.5 -25.5t26.5 -62.5zM1372 1505v-921q0 -253 -178 -434t-434 -181
q-257 0 -441 181q-182 182 -182 434v921q0 99 96 99q97 0 97 -101v-919q0 -171 129 -291q130 -121 301 -121t295 121q125 119 125 291v921q0 99 100 99q38 0 65 -29t27 -70z" />
    <glyph glyph-name="Yacute" unicode="&#xdd;" horiz-adv-x="1323" 
d="M895 1896q0 -46 -59 -73l-287 -131q-29 -11 -49 -11q-72 0 -72 70q0 51 61 78l287 131q23 10 43 10q31 0 53.5 -22.5t22.5 -51.5zM1260 1466l-498 -878v-520q0 -41 -28.5 -70t-67.5 -29q-41 0 -71 29t-30 70v520l-497 874q-13 23 -13 45q0 38 30.5 67.5t68.5 29.5
q61 0 88 -52l422 -731l419 731q27 52 88 52q39 0 70 -29.5t31 -67.5q0 -23 -12 -41z" />
    <glyph glyph-name="Thorn" unicode="&#xde;" horiz-adv-x="1255" 
d="M1155 836q0 -263 -192 -400q-168 -125 -437 -125q-98 0 -225 19v-264q0 -42 -29.5 -69.5t-74.5 -27.5q-38 0 -66.5 29.5t-28.5 67.5v1431q0 110 105 113q43 2 68.5 -27t25.5 -80l-2 -139q138 33 205 33q268 0 450 -144q201 -157 201 -417zM965 840q0 194 -150 293
q-122 79 -315 79q-81 0 -201 -32l2 -670q134 -25 242 -25q171 0 286 80q136 95 136 275z" />
    <glyph glyph-name="germandbls" unicode="&#xdf;" horiz-adv-x="1214" 
d="M1112 418q0 -183 -113 -305q-134 -143 -393 -146q-211 0 -211 107q0 35 24.5 58.5t59.5 21.5q19 0 54.5 -6.5t46.5 -6.5q175 0 270 86q88 79 88 209q3 144 -111 223q-106 74 -274 74q-100 0 -100 84q0 85 102 88q142 3 221 88q69 69 72 183q3 89 -55 159q-77 95 -228 95
q-125 0 -200.5 -75t-75.5 -202v-1305q0 -37 -26.5 -62.5t-63.5 -25.5t-62.5 25.5t-25.5 62.5l2 1321q0 202 135 322q125 113 319 113q199 0 328 -138q117 -123 117 -278q0 -108 -46 -202.5t-116 -139.5q123 -47 192.5 -161t69.5 -267z" />
    <glyph glyph-name="agrave" unicode="&#xe0;" 
d="M756 1171q-16 0 -49 11l-287 131q-60 28 -60 73q0 29 22.5 51.5t53.5 22.5q20 0 43 -10l289 -131q61 -27 61 -78q0 -70 -73 -70zM1051 49q0 -35 -28.5 -62.5t-61.5 -27.5q-63 0 -101 66q-41 -23 -110 -37q-74 -19 -117 -19q-232 0 -383 142q-159 150 -156 397
q3 231 156 381q157 151 383 151q98 0 180 -43q21 47 80 47q82 0 82 -92v-596q0 -129 37 -204q39 -74 39 -103zM813 174q-14 49 -14 105v552q-76 46 -166 46q-159 0 -260 -107q-103 -106 -103 -262q0 -159 103 -268q101 -107 260 -107q87 0 180 41z" />
    <glyph glyph-name="aacute" unicode="&#xe1;" 
d="M776 1356q0 -48 -57 -74l-289 -129q-24 -12 -47 -12q-74 0 -74 69q0 53 62 80l286 129q29 11 45 11q30 0 52 -22t22 -52zM1051 49q0 -35 -28.5 -62.5t-61.5 -27.5q-63 0 -101 66q-38 -21 -110 -39q-74 -19 -117 -19q-232 0 -383 142q-159 153 -156 399q3 231 156 381
q157 151 383 151q98 0 180 -43q21 47 80 47q82 0 82 -92v-596q0 -129 37 -204q39 -74 39 -103zM813 174q-14 49 -14 105v552q-76 46 -166 46q-159 0 -260 -107q-103 -106 -103 -262q0 -158 103 -270q103 -109 260 -109q84 0 180 45z" />
    <glyph glyph-name="acircumflex" unicode="&#xe2;" 
d="M801 1198q0 -53 -58 -53q-27 0 -55 22l-133 115l-135 -115q-23 -20 -49 -20q-62 0 -62 51q0 30 27 51l170 154q27 27 49 27q24 0 51 -27l168 -154q27 -21 27 -51zM1051 49q0 -35 -28.5 -62.5t-61.5 -27.5q-63 0 -101 66q-41 -23 -110 -37q-74 -19 -117 -19
q-232 0 -383 142q-159 150 -156 397q3 231 156 381q157 151 383 151q98 0 180 -43q21 47 80 47q82 0 82 -92v-596q0 -129 37 -204q39 -74 39 -103zM813 174q-14 49 -14 105v552q-76 46 -166 46q-159 0 -260 -107q-103 -106 -103 -262q0 -159 103 -268q101 -107 260 -107
q87 0 180 41z" />
    <glyph glyph-name="atilde" unicode="&#xe3;" 
d="M877 1282q0 -35 -60 -80q-59 -41 -119 -41q-81 0 -151 58q-51 45 -98 45q-34 0 -74 -37q-30 -23 -58 -23q-51 0 -51 56q0 39 60 81q61 43 129 43q76 0 139 -51q58 -49 94 -49q28 0 73 26.5t58 26.5q58 0 58 -55zM1051 49q0 -35 -28.5 -62.5t-61.5 -27.5q-63 0 -101 66
q-41 -23 -110 -37q-74 -19 -117 -19q-232 0 -383 142q-159 150 -156 397q3 231 156 381q157 151 383 151q98 0 180 -43q21 47 80 47q82 0 82 -92v-596q0 -129 37 -204q39 -74 39 -103zM813 174q-14 49 -14 105v552q-76 46 -166 46q-159 0 -260 -107q-103 -106 -103 -262
q0 -159 103 -268q101 -107 260 -107q87 0 180 41z" />
    <glyph glyph-name="adieresis" unicode="&#xe4;" 
d="M817 1231q0 -37 -26.5 -62.5t-63.5 -25.5t-62.5 25.5t-25.5 62.5t25.5 62.5t62.5 25.5t63.5 -25.5t26.5 -62.5zM449 1231q0 -37 -26 -62.5t-63 -25.5t-63.5 25.5t-26.5 62.5t26.5 62.5t63.5 25.5t63 -25.5t26 -62.5zM1051 49q0 -35 -28.5 -62.5t-61.5 -27.5
q-63 0 -101 66q-41 -23 -110 -37q-74 -19 -117 -19q-232 0 -383 142q-159 150 -156 397q3 231 156 381q157 151 383 151q98 0 180 -43q21 47 80 47q82 0 82 -92v-596q0 -129 37 -204q39 -74 39 -103zM813 174q-14 49 -14 105v552q-76 46 -166 46q-159 0 -260 -107
q-103 -106 -103 -262q0 -159 103 -268q101 -107 260 -107q87 0 180 41z" />
    <glyph glyph-name="aring" unicode="&#xe5;" 
d="M838 1346q0 -88 -62.5 -149.5t-150.5 -61.5t-150.5 61.5t-62.5 149.5q0 87 62.5 148.5t150.5 61.5t150.5 -61.5t62.5 -148.5zM1051 49q0 -35 -28.5 -62.5t-61.5 -27.5q-63 0 -101 66q-41 -23 -110 -37q-74 -19 -117 -19q-232 0 -383 142q-159 150 -156 397q3 231 156 381
q157 151 383 151q98 0 180 -43q21 47 80 47q82 0 82 -92v-596q0 -129 37 -204q39 -74 39 -103zM727 1346q0 43 -29.5 72.5t-72.5 29.5t-73 -29.5t-30 -72.5t30 -73t73 -30t72.5 30t29.5 73zM813 174q-14 49 -14 105v552q-76 46 -166 46q-159 0 -260 -107
q-103 -106 -103 -262q0 -159 103 -268q101 -107 260 -107q87 0 180 41z" />
    <glyph glyph-name="ae" unicode="&#xe6;" horiz-adv-x="1845" 
d="M1772 526q0 -40 -32.5 -68t-84.5 -28h-684q21 -121 112 -209t215 -88q114 0 199 31q15 6 31 6q35 0 58.5 -23.5t23.5 -56.5q0 -62 -54 -84q-81 -34 -204 -37h-72q-214 -3 -328 111q-138 -111 -338 -111q-232 3 -383 142q-158 149 -155 397q3 232 155 381q154 151 383 151
q97 0 179 -43q21 47 79 47q82 0 82 -92v-45q145 133 340 133q219 0 351 -147q130 -142 127 -367zM973 594h622q-3 109 -84 190q-90 93 -217 90q-136 0 -229 -90q-80 -80 -92 -190zM852 215q-74 145 -74 317v299q-76 46 -164 46q-158 0 -262 -107q-102 -105 -102 -262
q0 -160 102 -268q104 -107 262 -107q125 0 238 82z" />
    <glyph glyph-name="ccedilla" unicode="&#xe7;" horiz-adv-x="1046" 
d="M981 856q0 -31 -24 -53.5t-56 -22.5q-19 0 -39 13q-70 47 -125 63q-56 16 -139 16q-161 0 -248 -112q-82 -104 -82 -266q0 -133 99 -244q102 -117 239 -117q106 0 191 27q30 10 39 10q84 0 84 -84q0 -112 -273 -115v-6v-35q0 -23 31 -32q162 -55 162 -213
q0 -183 -158 -183h-133q-66 0 -66 54q0 51 60 51h96q76 0 76 74q0 61 -25 86q-17 17 -67 34l-27 9q-71 24 -68 108v47v10q-188 21 -313 164q-129 147 -129 355q0 215 145 380q147 166 365 166q224 0 350 -114q35 -35 35 -70z" />
    <glyph glyph-name="egrave" unicode="&#xe8;" horiz-adv-x="1179" 
d="M774 1171q-20 0 -49 11l-287 131q-59 27 -59 73q0 29 22.5 51.5t53.5 22.5q20 0 43 -10l286 -131q62 -27 62 -78q0 -70 -72 -70zM1090 526q0 -42 -35 -69t-82 -27h-688q35 -153 143 -233q88 -64 186 -64q54 0 110 9.5t89 18.5l33 9q35 0 58.5 -23.5t23.5 -56.5
q0 -84 -133 -108q-63 -13 -197 -13q-212 0 -358 152t-146 366q0 226 144 385q149 168 372 168q222 0 353 -149q127 -142 127 -365zM289 594h622q0 108 -82 190q-90 93 -217 90q-138 0 -231 -90q-83 -80 -92 -190z" />
    <glyph glyph-name="eacute" unicode="&#xe9;" horiz-adv-x="1179" 
d="M805 1356q0 -46 -60 -74l-286 -129q-24 -12 -49 -12q-72 0 -72 69q0 53 61 80l287 129q26 11 45 11q30 0 52 -22t22 -52zM1090 526q0 -42 -35 -69t-82 -27h-688q35 -153 143 -233q88 -64 186 -64q54 0 110 9.5t89 18.5l33 9q35 0 58.5 -23.5t23.5 -56.5q0 -84 -133 -108
q-63 -13 -197 -13q-212 0 -358 152t-146 366q0 226 144 385q149 168 372 168q222 0 353 -149q127 -142 127 -365zM289 594h622q0 108 -82 190q-90 93 -217 90q-138 0 -231 -90q-83 -80 -92 -190z" />
    <glyph glyph-name="ecircumflex" unicode="&#xea;" horiz-adv-x="1179" 
d="M848 1198q0 -53 -55 -53q-28 0 -56 22l-133 115l-135 -115q-26 -20 -51 -20q-60 0 -60 51q0 29 25 51l170 154q27 27 51 27q22 0 49 -27l168 -154q27 -21 27 -51zM1090 526q0 -42 -35 -69t-82 -27h-688q35 -153 143 -233q88 -64 186 -64q54 0 110 9.5t89 18.5l33 9
q35 0 58.5 -23.5t23.5 -56.5q0 -84 -133 -108q-63 -13 -197 -13q-212 0 -358 152t-146 366q0 226 144 385q149 168 372 168q222 0 353 -149q127 -142 127 -365zM289 594h622q0 108 -82 190q-90 93 -217 90q-138 0 -231 -90q-83 -80 -92 -190z" />
    <glyph glyph-name="edieresis" unicode="&#xeb;" horiz-adv-x="1179" 
d="M874 1231q0 -37 -25.5 -62.5t-62.5 -25.5t-63.5 25.5t-26.5 62.5t26.5 62.5t63.5 25.5t62.5 -25.5t25.5 -62.5zM506 1231q0 -37 -25.5 -62.5t-62.5 -25.5t-63.5 25.5t-26.5 62.5t26.5 62.5t63.5 25.5t62.5 -25.5t25.5 -62.5zM1090 526q0 -42 -35 -69t-82 -27h-688
q35 -153 143 -233q88 -64 186 -64q54 0 110 9.5t89 18.5l33 9q35 0 58.5 -23.5t23.5 -56.5q0 -84 -133 -108q-63 -13 -197 -13q-212 0 -358 152t-146 366q0 226 144 385q149 168 372 168q222 0 353 -149q127 -142 127 -365zM289 594h622q0 108 -82 190q-90 93 -217 90
q-138 0 -231 -90q-83 -80 -92 -190z" />
    <glyph glyph-name="igrave" unicode="&#xec;" horiz-adv-x="514" 
d="M426 1171q-18 0 -47 11l-289 131q-57 26 -57 73q0 29 22 51.5t51 22.5q19 0 46 -10l286 -131q62 -27 62 -78q0 -70 -74 -70zM356 940v-870q0 -45 -28.5 -77t-71.5 -32t-71.5 32t-28.5 77v870q0 38 31 68t69 30t69 -30t31 -68z" />
    <glyph glyph-name="iacute" unicode="&#xed;" horiz-adv-x="514" 
d="M487 1356q0 -48 -57 -74l-289 -129q-24 -12 -49 -12q-72 0 -72 69q0 53 62 80l287 129q29 11 45 11q30 0 51.5 -22t21.5 -52zM356 940v-870q0 -45 -28.5 -77t-71.5 -32t-71.5 32t-28.5 77v870q0 38 31 68t69 30t69 -30t31 -68z" />
    <glyph glyph-name="icircumflex" unicode="&#xee;" horiz-adv-x="514" 
d="M500 1198q0 -53 -56 -53q-27 0 -55 22l-133 115l-135 -115q-26 -20 -51 -20q-60 0 -60 51q0 29 25 51l170 154q27 27 51 27t51 -27l166 -154q27 -21 27 -51zM356 940v-870q0 -45 -28.5 -77t-71.5 -32t-71.5 32t-28.5 77v870q0 38 31 68t69 30t69 -30t31 -68z" />
    <glyph glyph-name="idieresis" unicode="&#xef;" horiz-adv-x="514" 
d="M528 1231q0 -37 -26.5 -62.5t-63.5 -25.5t-62.5 25.5t-25.5 62.5t25.5 62.5t62.5 25.5t63.5 -25.5t26.5 -62.5zM160 1231q0 -37 -26.5 -62.5t-63.5 -25.5t-62.5 25.5t-25.5 62.5t25.5 62.5t62.5 25.5t63.5 -25.5t26.5 -62.5zM356 940v-870q0 -45 -28.5 -77t-71.5 -32
t-71.5 32t-28.5 77v870q0 38 31 68t69 30t69 -30t31 -68z" />
    <glyph glyph-name="eth" unicode="&#xf0;" horiz-adv-x="1165" 
d="M1055 879l2 -813q0 -39 -26 -68t-62 -29q-63 0 -84 64q-68 -45 -127 -60q-36 -8 -129 -8q-225 0 -383 158q-156 159 -156 383q0 227 156 383q157 160 383 160q106 0 254 -62q-18 149 -95 264l-90 -67q-36 -25 -57 -25t-43 31q-20 23 -20 39q0 27 43 57l79 60
q-39 36 -82 65q-45 29 -45 66q0 25 21.5 48t46.5 23q30 0 94 -43q45 -27 88 -67l68 49q33 26 55 26t43 -26t21 -45q0 -23 -41 -58l-60 -43q146 -217 146 -462zM881 215v582q-118 92 -252 92q-156 0 -258 -111q-101 -110 -101 -272q0 -163 101 -273t258 -110q137 0 252 92z
" />
    <glyph glyph-name="ntilde" unicode="&#xf1;" horiz-adv-x="1071" 
d="M852 1253q0 -38 -59 -79t-119 -41q-86 0 -152 57q-52 43 -98 43q-33 0 -76 -37q-23 -20 -57 -20q-49 0 -49 55q0 39 59 80q61 43 127 43q78 0 141 -51q59 -50 95 -50q38 3 71 29q37 27 60 27q54 0 57 -56zM952 520v-457q0 -41 -25.5 -67.5t-62.5 -26.5t-62.5 26.5
t-25.5 67.5v406q0 198 -43 291q-59 134 -207 131q-129 -3 -229 -103v-720q0 -41 -26.5 -70t-63.5 -29q-36 0 -62 29t-26 70v888q0 91 94 91q69 0 84 -89q86 89 217 89q213 0 317 -107q121 -127 121 -420z" />
    <glyph glyph-name="ograve" unicode="&#xf2;" horiz-adv-x="1177" 
d="M748 1171q-21 0 -50 11l-286 131q-60 28 -60 73q0 29 22.5 51.5t51.5 22.5q22 0 45 -10l287 -131q61 -27 61 -78q0 -70 -71 -70zM1059 504q0 -234 -137 -383q-135 -150 -342 -150q-206 0 -344 150q-136 151 -136 383q0 237 138 387q139 151 342 151t342 -151
q137 -149 137 -387zM883 494q0 159 -80 268q-86 115 -223 115q-140 0 -222 -113q-82 -110 -82 -270q0 -158 82.5 -259.5t221.5 -101.5q138 0 221 103q82 101 82 258z" />
    <glyph glyph-name="oacute" unicode="&#xf3;" horiz-adv-x="1177" 
d="M778 1356q0 -47 -59 -74l-287 -129q-24 -12 -49 -12q-72 0 -72 69q0 53 62 80l286 129q26 11 43 11q31 0 53.5 -21.5t22.5 -52.5zM1059 504q0 -234 -137 -383q-135 -150 -342 -150q-206 0 -344 150q-136 151 -136 383q0 237 138 387q139 151 342 151t342 -151
q137 -149 137 -387zM883 494q0 159 -80 268q-86 115 -223 115q-140 0 -222 -113q-82 -110 -82 -270q0 -158 82.5 -259.5t221.5 -101.5q138 0 221 103q82 101 82 258z" />
    <glyph glyph-name="ocircumflex" unicode="&#xf4;" horiz-adv-x="1177" 
d="M825 1198q0 -53 -57 -53q-28 0 -53 22l-133 115l-138 -115q-23 -20 -49 -20q-59 0 -59 51q0 30 24 51l170 154q27 27 52 27q22 0 49 -27l168 -154q26 -20 26 -51zM1059 504q0 -234 -137 -383q-135 -150 -342 -150q-206 0 -344 150q-136 151 -136 383q0 237 138 387
q139 151 342 151t342 -151q137 -149 137 -387zM883 494q0 159 -80 268q-86 115 -223 115q-140 0 -222 -113q-82 -110 -82 -270q0 -158 82.5 -259.5t221.5 -101.5q138 0 221 103q82 101 82 258z" />
    <glyph glyph-name="otilde" unicode="&#xf5;" horiz-adv-x="1177" 
d="M897 1274q3 -39 -57 -80q-59 -41 -121 -41q-83 0 -152 57q-52 43 -96 43q-34 0 -76 -36q-30 -23 -57 -23q-49 0 -49 55q0 41 59 82q61 43 127 43q77 0 137 -51q64 -49 99 -49q38 0 71 26q40 29 58 29q57 0 57 -55zM1059 504q0 -234 -137 -383q-135 -150 -342 -150
q-206 0 -344 150q-136 151 -136 383q0 237 138 387q139 151 342 151t342 -151q137 -149 137 -387zM883 494q0 159 -80 268q-86 115 -223 115q-140 0 -222 -113q-82 -110 -82 -270q0 -158 82.5 -259.5t221.5 -101.5q138 0 221 103q82 101 82 258z" />
    <glyph glyph-name="odieresis" unicode="&#xf6;" horiz-adv-x="1177" 
d="M848 1231q0 -37 -25.5 -62.5t-62.5 -25.5t-63.5 25.5t-26.5 62.5t26.5 62.5t63.5 25.5t62.5 -25.5t25.5 -62.5zM479 1231q0 -37 -25.5 -62.5t-62.5 -25.5t-63.5 25.5t-26.5 62.5t26.5 62.5t63.5 25.5t62.5 -25.5t25.5 -62.5zM1059 504q0 -234 -137 -383
q-135 -150 -342 -150q-206 0 -344 150q-136 151 -136 383q0 237 138 387q139 151 342 151t342 -151q137 -149 137 -387zM883 494q0 159 -80 268q-86 115 -223 115q-140 0 -222 -113q-82 -110 -82 -270q0 -158 82.5 -259.5t221.5 -101.5q138 0 221 103q82 101 82 258z" />
    <glyph glyph-name="divide" unicode="&#xf7;" horiz-adv-x="1085" 
d="M666 952q0 -52 -37 -89.5t-90 -37.5q-51 0 -89 38t-38 89q0 53 37.5 90t89.5 37q54 0 90.5 -36.5t36.5 -90.5zM995 600q0 -88 -90 -88h-723q-92 0 -92 88q0 41 25.5 66.5t66.5 25.5h723q90 0 90 -92zM666 250q0 -52 -37 -88.5t-90 -36.5q-51 0 -89 37t-38 88
q0 53 37.5 90t89.5 37q54 0 90.5 -36.5t36.5 -90.5z" />
    <glyph glyph-name="oslash" unicode="&#xf8;" horiz-adv-x="1177" 
d="M1061 494q0 -238 -137 -396q-139 -157 -342 -157q-79 0 -158 28l-33 -69q-28 -60 -82 -60q-61 0 -61 72q0 24 12 51l37 80q-195 160 -195 451q0 237 138 393q137 155 342 155q82 0 161 -28l21 43q27 61 82 61q61 0 61 -71q0 -27 -12 -54l-25 -53q191 -159 191 -446z
M885 483q0 174 -92 289l-301 -653q44 -15 90 -15q137 0 223 115q80 109 80 264zM371 203l303 657q-53 17 -92 17q-141 0 -224 -121q-79 -110 -79 -273q0 -171 92 -280z" />
    <glyph glyph-name="ugrave" unicode="&#xf9;" horiz-adv-x="1064" 
d="M707 1171q-17 0 -50 11l-286 131q-60 28 -60 73q0 29 22.5 51.5t53.5 22.5q20 0 43 -10l289 -131q61 -27 61 -78q0 -70 -73 -70zM987 78q25 -73 -31 -103q-25 -14 -51 -14q-55 0 -82 59q-105 -51 -276 -51q-430 0 -430 461v524q0 38 25.5 64t62.5 26t62.5 -26t25.5 -64
v-448q0 -180 47 -266q61 -107 211 -107q158 0 229 45q-8 21 -8 58v712q0 41 26 68.5t62 27.5q37 0 62.5 -27.5t25.5 -68.5v-710q0 -72 39 -160z" />
    <glyph glyph-name="uacute" unicode="&#xfa;" horiz-adv-x="1064" 
d="M768 1356q0 -47 -59 -74l-287 -129q-24 -12 -49 -12q-72 0 -72 69q0 53 61 80l287 129q26 11 43 11q31 0 53.5 -21.5t22.5 -52.5zM987 78q25 -73 -31 -103q-25 -14 -51 -14q-55 0 -82 59q-105 -51 -276 -51q-430 0 -430 461v524q0 38 25.5 64t62.5 26t62.5 -26t25.5 -64
v-448q0 -180 47 -266q61 -107 211 -107q158 0 229 45q-8 21 -8 58v712q0 41 26 68.5t62 27.5q37 0 62.5 -27.5t25.5 -68.5v-710q0 -72 39 -160z" />
    <glyph glyph-name="ucircumflex" unicode="&#xfb;" horiz-adv-x="1064" 
d="M780 1198q0 -53 -55 -53q-27 0 -55 22l-133 115l-136 -115q-26 -20 -51 -20q-59 0 -59 51q0 30 24 51l172 154q27 27 50 27q24 0 51 -27l168 -154q24 -21 24 -51zM987 78q25 -73 -31 -103q-25 -14 -51 -14q-55 0 -82 59q-105 -51 -276 -51q-430 0 -430 461v524
q0 38 25.5 64t62.5 26t62.5 -26t25.5 -64v-448q0 -180 47 -266q61 -107 211 -107q158 0 229 45q-8 21 -8 58v712q0 41 26 68.5t62 27.5q37 0 62.5 -27.5t25.5 -68.5v-710q0 -72 39 -160z" />
    <glyph glyph-name="udieresis" unicode="&#xfc;" horiz-adv-x="1064" 
d="M809 1231q0 -37 -26.5 -62.5t-63.5 -25.5t-62.5 25.5t-25.5 62.5t25.5 62.5t62.5 25.5t63.5 -25.5t26.5 -62.5zM440 1231q0 -37 -26.5 -62.5t-63.5 -25.5t-62.5 25.5t-25.5 62.5t25.5 62.5t62.5 25.5t63.5 -25.5t26.5 -62.5zM987 78q25 -73 -31 -103q-25 -14 -51 -14
q-55 0 -82 59q-105 -51 -276 -51q-430 0 -430 461v524q0 38 25.5 64t62.5 26t62.5 -26t25.5 -64v-448q0 -180 47 -266q61 -107 211 -107q158 0 229 45q-8 21 -8 58v712q0 41 26 68.5t62 27.5q37 0 62.5 -27.5t25.5 -68.5v-710q0 -72 39 -160z" />
    <glyph glyph-name="yacute" unicode="&#xfd;" horiz-adv-x="1138" 
d="M784 1405q0 -50 -57 -76l-289 -129q-24 -12 -47 -12q-74 0 -74 69q0 53 62 80l287 131q29 11 45 11q29 0 51 -22.5t22 -51.5zM1022 948v-1095q0 -212 -143 -310q-112 -75 -301 -75q-203 0 -322 43q-55 24 -55 83q0 80 80 80q10 0 22 -4q128 -42 252 -39q289 3 289 209
v211q-44 -44 -129 -69q-67 -21 -121 -21q-477 0 -477 520v473q0 38 25.5 64t62.5 26t62.5 -26t25.5 -64v-422q0 -182 63 -290q77 -130 226 -127q162 3 262 100v733q0 41 27.5 68.5t64.5 27.5q36 0 61 -27.5t25 -68.5z" />
    <glyph glyph-name="thorn" unicode="&#xfe;" horiz-adv-x="1214" 
d="M1104 510q0 -252 -119 -389q-128 -146 -375 -146q-215 0 -215 107q0 31 22.5 54.5t51.5 23.5q17 0 71 -8.5t70 -8.5q146 0 234 117q82 107 82 254q0 150 -90 260q-94 117 -246 117q-185 0 -301 -90v-1301q0 -39 -26 -68.5t-62 -29.5t-63 29.5t-27 68.5v1977q0 41 26 69.5
t64 28.5t63 -28t25 -70v-490q101 64 301 64q218 0 366 -160t148 -381z" />
    <glyph glyph-name="ydieresis" unicode="&#xff;" horiz-adv-x="1138" 
d="M840 1260q0 -36 -26 -62.5t-62 -26.5t-63 26.5t-27 62.5q0 37 26.5 63.5t63.5 26.5t62.5 -26.5t25.5 -63.5zM471 1260q0 -36 -26 -62.5t-62 -26.5q-37 0 -63.5 26.5t-26.5 62.5q0 37 26.5 63.5t63.5 26.5t62.5 -26.5t25.5 -63.5zM1022 948v-1106q0 -211 -143 -309
q-113 -76 -301 -76q-203 0 -322 43q-55 27 -55 84q0 80 80 80q10 0 22 -4q128 -42 252 -39q289 3 289 211v209q-46 -46 -129 -70q-64 -20 -121 -20q-477 0 -477 520v483q0 38 25.5 64t62.5 26t62.5 -26t25.5 -64v-432q0 -183 63 -291q77 -130 226 -127q162 3 262 103v741
q0 41 27.5 68.5t64.5 27.5q36 0 61 -27.5t25 -68.5z" />
    <glyph glyph-name="Aogonek" unicode="&#x104;" horiz-adv-x="1419" 
d="M883 1520l467 -1401q10 -33 10 -58q0 -54 -37 -75q-23 -10 -41 -15l-137 -194q-53 -77 -53 -160q0 -40 27 -66t61 -26q51 -3 84 20l28 19q17 10 31 10q51 0 51 -49q0 -51 -49 -78q-77 -41 -160 -41q-89 0 -150 58t-61 139q0 125 88 250l134 186l-9 20l-159 469h-570
l-196 -489q-41 -68 -107 -68q-30 0 -53 25.5t-23 56.5q0 12 7 33q134 334 176 442q-103 0 -103 90q0 87 111 87h67l326 825q40 94 121 94q82 0 119 -104zM510 705h438l-200 612z" />
    <glyph glyph-name="aogonek" unicode="&#x105;" 
d="M813 174q-14 49 -14 105v552q-76 46 -166 46q-159 0 -260 -107q-103 -106 -103 -262q0 -158 103 -270q103 -109 260 -109q84 0 180 45zM870 -594q-97 0 -162 60t-65 151q0 123 117 252l119 129q-7 7 -19 27q-38 -21 -110 -39q-74 -19 -117 -19q-232 0 -383 142
q-159 153 -156 399q3 231 156 381q157 151 383 151q98 0 180 -43q21 47 80 47q82 0 82 -92v-596q0 -129 37 -204q39 -74 39 -103q0 -10 -2 -14q-3 -44 -37 -78l-160 -176q-72 -81 -72 -164q0 -43 35 -70q27 -24 64 -24q35 0 63 14l35 14q14 7 24 7q48 0 48 -52
q0 -46 -55.5 -73t-123.5 -27z" />
    <glyph glyph-name="Cacute" unicode="&#x106;" horiz-adv-x="1300" 
d="M938 1917q0 -49 -59 -76l-287 -129q-24 -12 -49 -12q-72 0 -72 69q0 53 61 80l287 131q26 11 43 11q31 0 53.5 -22.5t22.5 -51.5zM1237 1153q0 -46 -30 -75t-72 -29q-97 0 -97 104q0 75 -80 158q-101 110 -262 110q-187 0 -307 -172q-129 -181 -129 -489q0 -610 488 -613
q112 0 249 76q27 15 56 15q36 0 63 -28t27 -65q0 -52 -51 -86q-146 -90 -365 -90q-661 0 -664 791q0 413 201 643q177 201 449 201q205 0 364 -138q160 -136 160 -313z" />
    <glyph glyph-name="cacute" unicode="&#x107;" horiz-adv-x="1046" 
d="M825 1366q0 -47 -59 -74l-287 -131q-27 -10 -49 -10q-72 0 -72 70q0 52 62 79l287 130q23 10 43 10q31 0 53 -21.5t22 -52.5zM981 856q0 -31 -24 -53.5t-56 -22.5q-19 0 -39 13q-70 47 -125 63q-56 16 -139 16q-161 0 -248 -112q-82 -104 -82 -266q0 -133 99 -244
q102 -117 239 -117q106 0 191 27q30 10 39 10q84 0 84 -84q0 -80 -129 -104q-72 -11 -195 -11q-215 0 -363 148q-147 147 -147 375q0 215 145 380q147 166 365 166q224 0 350 -114q35 -35 35 -70z" />
    <glyph glyph-name="Ccaron" unicode="&#x10c;" horiz-adv-x="1300" 
d="M961 1923q0 -30 -27 -51l-168 -154q-26 -26 -49 -26q-25 0 -51 26l-170 154q-27 21 -27 51q0 51 61 51q27 0 50 -20l137 -117l133 117q25 22 53 22q58 0 58 -53zM1237 1153q0 -46 -30 -75t-72 -29q-97 0 -97 104q0 75 -80 158q-101 110 -262 110q-187 0 -307 -172
q-129 -181 -129 -489q0 -610 488 -613q112 0 249 76q27 15 56 15q36 0 63 -28t27 -65q0 -52 -51 -86q-146 -90 -365 -90q-661 0 -664 791q0 413 201 643q177 201 449 201q205 0 364 -138q160 -136 160 -313z" />
    <glyph glyph-name="ccaron" unicode="&#x10d;" horiz-adv-x="1046" 
d="M840 1354q0 -30 -27 -51l-168 -154q-27 -27 -49 -27q-24 0 -51 27l-170 154q-27 21 -27 51q0 51 62 51q25 0 49 -21l137 -114l131 114q30 23 55 23q58 0 58 -53zM981 856q0 -31 -24 -53.5t-56 -22.5q-19 0 -39 13q-70 47 -125 63q-56 16 -139 16q-161 0 -248 -112
q-82 -104 -82 -266q0 -133 99 -244q102 -117 239 -117q106 0 191 27q30 10 39 10q84 0 84 -84q0 -80 -129 -104q-72 -11 -195 -11q-215 0 -363 148q-147 147 -147 375q0 215 145 380q147 166 365 166q224 0 350 -114q35 -35 35 -70z" />
    <glyph glyph-name="Edotaccent" unicode="&#x116;" horiz-adv-x="1320" 
d="M1231 1481q0 -84 -121 -84h-729v-525h635q51 0 85 -26t34 -68q0 -84 -119 -84h-635v-305q0 -211 231 -211h486q119 0 119 -86q0 -42 -34 -67t-85 -25h-551q-135 0 -236 66q-127 83 -127 247l-2 379q-82 15 -82 90q0 72 82 90v572q0 131 135 131h793q121 0 121 -94z
M838 1888q0 -54 -36.5 -90.5t-90.5 -36.5t-90.5 36.5t-36.5 90.5q0 52 37 89.5t90 37.5t90 -37.5t37 -89.5z" />
    <glyph glyph-name="edotaccent" unicode="&#x117;" horiz-adv-x="1179" 
d="M1090 526q0 -42 -35 -69t-82 -27h-688q35 -153 143 -233q88 -64 186 -64q54 0 110 9.5t89 18.5l33 9q35 0 58.5 -23.5t23.5 -56.5q0 -121 -330 -121q-212 0 -358 152t-146 366q0 226 144 385q149 168 372 168q222 0 353 -149q127 -142 127 -365zM289 594h622
q0 108 -82 190q-90 93 -217 90q-138 0 -231 -90q-83 -80 -92 -190zM741 1380q0 -52 -36.5 -88.5t-90.5 -36.5t-90.5 36.5t-36.5 88.5q0 54 36.5 90.5t90.5 36.5t90.5 -36.5t36.5 -90.5z" />
    <glyph glyph-name="Eogonek" unicode="&#x118;" horiz-adv-x="1320" 
d="M1032 -594q-99 -6 -168.5 49.5t-75.5 145.5q-9 120 101 260l110 139h-452q-135 0 -236 66q-127 83 -127 247l-2 379q-82 15 -82 90q0 72 82 90v572q0 131 135 131h793q121 0 121 -94q0 -84 -121 -84h-729v-525h635q51 0 85 -26t34 -68q0 -84 -119 -84h-635v-305
q0 -211 231 -211h486q50 0 84.5 -24t34.5 -62q0 -71 -58 -92l-172 -221q-65 -83 -59 -168q3 -45 39 -68q33 -23 65 -20q16 0 62 18l34 19q12 6 25 6q46 0 49 -47q3 -52 -53 -78q-60 -32 -117 -35z" />
    <glyph glyph-name="eogonek" unicode="&#x119;" horiz-adv-x="1179" 
d="M289 594h622q0 108 -82 190q-90 93 -217 90q-138 0 -231 -90q-83 -80 -92 -190zM743 -590q-97 -5 -166 53t-73 148q-6 125 104 256l88 104q-25 -2 -98 -2q-212 0 -358 152t-146 366q0 226 144 385q149 168 372 168q222 0 353 -149q127 -142 127 -365q0 -42 -35 -69
t-82 -27h-688q35 -153 143 -233q88 -64 186 -64q55 0 110.5 9.5t88.5 18.5l33 9q35 0 58.5 -23.5t23.5 -56.5q0 -19 -17 -53q-13 -22 -26 -37l-178 -215q-69 -81 -66 -168q4 -41 35.5 -66.5t68.5 -23.5q15 0 62 18l35 17q12 6 26 6q47 0 50 -47q3 -51 -56 -78
q-66 -30 -119 -33z" />
    <glyph glyph-name="Gbreve" unicode="&#x11e;" horiz-adv-x="1458" 
d="M1382 778q0 -56 -57 -71q10 -75 10 -132q0 -277 -184 -452q-163 -156 -383 -156q-273 0 -467 232q-192 232 -192 579t155 563q188 265 565 265q172 0 293 -50q72 -28 72 -92q0 -33 -24.5 -57.5t-61.5 -24.5q-20 0 -53 11q-102 30 -228 30q-248 0 -385 -174
q-137 -171 -137 -471q0 -262 144 -444q138 -170 319 -170q149 0 250 98q115 115 115 303q0 55 -13 131h-467q-118 0 -118 82q0 39 32.5 66.5t85.5 27.5h621q108 0 108 -94zM1196 2083q0 -142 -123 -244t-309 -102q-179 0 -301 96q-122 101 -119 254q0 29 19.5 49.5
t44.5 20.5q59 0 59 -64q0 -106 90 -172q80 -57 207 -57q124 0 215 67q94 70 94 162q0 64 64 64q59 0 59 -74z" />
    <glyph glyph-name="gbreve" unicode="&#x11f;" 
d="M1004 944v-1098q0 -247 -170 -333q-109 -56 -334 -56q-176 0 -267 45q-51 23 -51 82q0 11 4 31q12 47 74 47q7 0 27 -4q124 -37 211 -37h34q144 0 209 41q84 53 84 182v158q-79 -33 -184 -33q-240 0 -399 135q-173 147 -170 392q3 231 170 385q171 157 399 157
q93 0 199 -41q21 47 80 47q84 0 84 -100zM829 168v661q-105 48 -188 48q-162 0 -276 -111q-113 -110 -113 -270q0 -156 113 -263q113 -104 276 -104q87 0 188 39zM995 1536q0 -142 -123 -244t-309 -102q-179 0 -301 96q-122 101 -119 254q0 29 19.5 49.5t44.5 20.5
q59 0 59 -64q0 -106 90 -172q80 -57 207 -57q124 0 215 67q94 70 94 162q0 64 64 64q59 0 59 -74z" />
    <glyph glyph-name="Iogonek" unicode="&#x12e;" horiz-adv-x="1050" 
d="M774 -598q-97 -5 -166 52t-73 149q-6 125 104 256l117 141h-559q-111 0 -111 90q0 86 111 86h223v1221h-213q-111 0 -111 86q0 92 111 92h637q110 0 110 -92q0 -86 -110 -86h-228v-1221h238q111 0 111 -86q0 -34 -25 -59q-7 -18 -25 -39l-178 -215q-68 -80 -65 -168
q4 -41 35.5 -66.5t68.5 -23.5q12 0 62 16l34 19q12 6 27 6q46 0 49 -47q3 -51 -55 -78q-66 -30 -119 -33z" />
    <glyph glyph-name="iogonek" unicode="&#x12f;" horiz-adv-x="552" 
d="M403 1380q0 -52 -36.5 -88.5t-90.5 -36.5q-53 0 -89.5 36.5t-36.5 88.5q0 54 36 90.5t90 36.5t90.5 -36.5t36.5 -90.5zM362 -582q-41 -12 -77 -12q-158 0 -205 145q-14 41 -14 89q0 79 49 186l84 182q-23 30 -23 72v860q0 38 30.5 68t67.5 30q41 0 72 -30t31 -68v-860
q0 -66 -49 -96v-4l-99 -209q-28 -67 -28 -113q0 -129 106 -129q12 0 18 1t23 9.5t43 26.5l29 24q17 17 35 17q38 0 47 -37q16 -48 -33 -88q-44 -42 -107 -64z" />
    <glyph glyph-name="Idotaccent" unicode="&#x130;" horiz-adv-x="1050" 
d="M965 90q0 -90 -111 -90h-657q-111 0 -111 90q0 86 111 86h223v1221h-213q-111 0 -111 86q0 92 111 92h637q110 0 110 -92q0 -86 -110 -86h-228v-1221h238q111 0 111 -86zM649 1888q0 -54 -36.5 -90.5t-90.5 -36.5t-90.5 36.5t-36.5 90.5q0 52 37 89.5t90 37.5t90 -37.5
t37 -89.5z" />
    <glyph glyph-name="dotlessi" unicode="&#x131;" horiz-adv-x="514" 
d="M356 940v-891q0 -45 -28.5 -76.5t-71.5 -31.5t-71.5 31.5t-28.5 76.5v891q0 38 31 68t69 30t69 -30t31 -68z" />
    <glyph glyph-name="Lslash" unicode="&#x141;" horiz-adv-x="1126" 
d="M567 946q0 -45 -43 -72l-209 -131v-559h658q41 0 69.5 -27.5t28.5 -64.5q0 -38 -28.5 -65t-69.5 -27h-819q-97 0 -97 92q0 59 64 86v445q-18 -9 -35 -9q-46 0 -68 48q-16 29 -16 51q0 47 45 73l74 48v671q0 41 28.5 70t69.5 29q39 0 67.5 -29t28.5 -70v-551l113 72
q29 16 53 16q36 0 61 -29t25 -67z" />
    <glyph glyph-name="lslash" unicode="&#x142;" horiz-adv-x="526" 
d="M539 948q0 -47 -43 -74l-134 -81v-447q0 -144 41 -231q13 -26 13 -52q0 -40 -26.5 -71t-57.5 -31q-87 0 -125 80q-45 86 -45 270v355q-23 -13 -45 -13q-48 0 -68 45q-16 29 -16 54q0 45 45 71l84 54v628q0 41 29.5 70t70.5 29t70.5 -29t29.5 -70v-501l37 22q29 16 54 16
q36 0 61 -28t25 -66z" />
    <glyph glyph-name="OE" unicode="&#x152;" horiz-adv-x="2490" 
d="M2390 1479q0 -82 -121 -82h-729v-525h637q50 0 83.5 -26t33.5 -68q0 -84 -117 -84h-637v-305q0 -211 232 -211h485q119 0 119 -86q0 -42 -34 -67t-85 -25h-549q-118 0 -209 49q-116 62 -145 180q-211 -260 -537 -260q-303 0 -512 232q-209 235 -209 577q0 348 209 586
q211 240 512 240q314 0 526 -256v96q0 131 134 131h792q121 0 121 -96zM1341 694q-81 15 -81 88q0 72 79 90q-27 236 -170 388q-143 155 -352 155q-230 0 -379 -186q-149 -183 -149 -449q0 -264 149 -444q150 -178 379 -178q209 0 354 151q146 152 170 385z" />
    <glyph glyph-name="oe" unicode="&#x153;" horiz-adv-x="1961" 
d="M1874 526q0 -42 -35 -69t-82 -27h-686q30 -137 115 -213q61 -54 141 -72l74 -12q100 0 198 31q15 6 31 6q35 0 58.5 -23.5t23.5 -56.5q0 -81 -133 -108q-67 -13 -197 -13q-252 0 -403 207q-126 -215 -397 -215q-222 0 -353 162q-127 151 -127 371q0 223 127 380
q134 168 353 168q258 0 395 -229q149 227 418 227q223 0 354 -149q125 -140 125 -365zM1073 594h625q-3 116 -92 199q-87 81 -209 81q-125 0 -219 -79q-93 -78 -105 -201zM883 434v103q0 123 -90 233q-88 107 -211 107q-148 0 -230 -129q-73 -110 -73 -265q0 -146 73 -247
q82 -111 230 -111q124 0 213 92q88 91 88 217z" />
    <glyph glyph-name="Scedilla" unicode="&#x15e;" horiz-adv-x="1409" 
d="M954 -315q0 -183 -155 -183h-135q-64 0 -64 54q0 51 59 51h95q75 0 75 74q0 61 -22 86q-16 16 -68 34l-26 9q-70 24 -70 108l2 51q-289 9 -430 125q-55 46 -55 84q0 43 27.5 74t70.5 31q17 0 61 -23q175 -100 371 -100q150 0 266 61q140 78 140 209q0 136 -156 203
q-77 33 -293 69q-518 76 -518 447q0 225 154 346q142 109 387 109q234 0 407 -138q150 -120 150 -247q0 -40 -28.5 -65.5t-70.5 -25.5q-72 0 -100 78q-22 67 -110 131q-109 80 -240 80q-142 0 -234 -63q-108 -70 -108 -203q3 -211 428 -272q266 -38 391 -136
q141 -108 141 -309q0 -212 -163 -338q-147 -110 -369 -125v-6v-35q0 -23 31 -32q159 -56 159 -213z" />
    <glyph glyph-name="Scaron" unicode="&#x160;" horiz-adv-x="1419" 
d="M918 1903q0 -28 -27 -52l-168 -153q-28 -25 -49 -25q-23 0 -51 25l-170 153q-27 21 -27 52q0 53 61 53q24 0 50 -23l137 -114l133 114q26 23 53 23q58 0 58 -53zM1296 434q0 -230 -190 -356q-165 -109 -410 -109q-332 0 -481 125q-55 46 -55 84q0 43 27.5 74t70.5 31
q17 0 61 -23q175 -100 371 -100q150 0 266 61q140 78 140 209q0 136 -156 203q-77 33 -293 69q-518 76 -518 451q0 224 164 344q143 107 377 107t405 -136q152 -122 152 -245q0 -40 -28.5 -65t-70.5 -25q-74 0 -100 75q-20 66 -110 131q-110 78 -240 78q-143 0 -234 -61
q-108 -70 -108 -203q3 -225 428 -274q266 -38 391 -136q141 -108 141 -309z" />
    <glyph glyph-name="scaron" unicode="&#x161;" horiz-adv-x="1034" 
d="M756 1356q0 -30 -27 -51l-168 -154q-27 -27 -49 -27q-24 0 -51 27l-170 154q-27 21 -27 51q0 51 62 51q25 0 49 -21l137 -116l131 116q30 23 55 23q58 0 58 -53zM950 283q0 -316 -438 -316q-115 0 -225 29q-150 40 -150 121q0 32 21 56t51 24q19 0 43 -7q12 -4 47 -16
t53 -17.5t47.5 -13.5t56.5 -11t56 -3q260 0 260 145q0 86 -96 127q-66 25 -180 33q-390 34 -390 307q-3 146 134 230q115 71 272 71q116 0 215 -45q119 -52 154 -147q8 -19 8 -41q0 -72 -78 -72q-41 0 -70 39q-48 58 -65 70q-58 37 -164 37q-84 0 -145 -27q-81 -37 -84 -113
q0 -133 241 -151q426 -34 426 -309z" />
    <glyph glyph-name="Umacron" unicode="&#x16a;" horiz-adv-x="1515" 
d="M1376 1507v-923q0 -254 -180 -434q-178 -181 -432 -181q-256 0 -440 181q-185 182 -185 434v923q0 99 99 99q96 0 96 -101v-921q0 -171 129 -291q130 -121 301 -121t295 121q125 119 125 291v923q0 99 98 99q41 0 67.5 -28.5t26.5 -70.5zM1114 1841q0 -32 -25.5 -55
t-66.5 -23h-510q-40 0 -66 23t-26 55q0 30 26 53t66 23h510q41 0 66.5 -22.5t25.5 -53.5z" />
    <glyph glyph-name="umacron" unicode="&#x16b;" horiz-adv-x="1097" 
d="M1026 100q12 -21 12 -47q0 -38 -26.5 -66t-61.5 -28q-75 0 -102 68q-125 -58 -287 -58q-432 0 -432 461v524q0 38 26.5 64t63.5 26t62.5 -26t25.5 -64v-448q0 -180 47 -266q61 -107 211 -107q145 0 238 43q-17 39 -17 100v672q0 41 25.5 68.5t62.5 27.5t63 -27.5
t26 -68.5v-590q0 -150 63 -258zM895 1315q0 -32 -26.5 -55t-67.5 -23h-508q-41 0 -67.5 23t-26.5 55q0 31 26.5 53.5t67.5 22.5h508q41 0 67.5 -22.5t26.5 -53.5z" />
    <glyph glyph-name="Uogonek" unicode="&#x172;" horiz-adv-x="1515" 
d="M743 -592q-97 -5 -166 53t-73 148q-6 125 104 256l90 108q-234 24 -397 199q-162 174 -162 412v923q0 99 99 99q96 0 96 -101v-921q0 -171 129 -291q130 -121 301 -121t295 121q125 119 125 291v923q0 99 98 99q41 0 67.5 -28.5t26.5 -70.5v-923q0 -226 -145 -400
q-144 -169 -363 -207l-161 -194q-69 -81 -66 -168q4 -41 35.5 -66.5t68.5 -23.5q15 0 62 18l35 17q12 6 26 6q47 0 50 -47q3 -51 -56 -78q-66 -30 -119 -33z" />
    <glyph glyph-name="uogonek" unicode="&#x173;" horiz-adv-x="1097" 
d="M831 -594q-97 0 -162 60t-65 151q0 123 117 252l133 143l-6 15q-125 -58 -287 -58q-432 0 -432 461v524q0 38 26.5 64t63.5 26t62.5 -26t25.5 -64v-448q0 -180 47 -266q61 -107 211 -107q145 0 238 43q-17 39 -17 100v672q0 41 25.5 68.5t62.5 27.5t63 -27.5t26 -68.5
v-590q0 -147 63 -258q14 -20 14 -47q0 -59 -53 -86l-174 -186q-72 -78 -72 -164q0 -43 35 -70q27 -24 64 -24q33 0 63 12l35 16q14 7 25 7q49 0 49 -52q0 -48 -60 -73q-58 -27 -121 -27z" />
    <glyph glyph-name="Ydieresis" unicode="&#x178;" horiz-adv-x="1323" 
d="M940 1763q0 -37 -26.5 -63.5t-63.5 -26.5t-62.5 26.5t-25.5 63.5q0 36 26 62t62 26q37 0 63.5 -26.5t26.5 -61.5zM571 1763q0 -37 -26 -63.5t-64 -26.5q-37 0 -62.5 26.5t-25.5 63.5q0 36 26 62t62 26q38 0 64 -26t26 -62zM1260 1466l-498 -878v-520q0 -41 -28.5 -70
t-67.5 -29q-41 0 -71 29t-30 70v520l-497 874q-13 23 -13 45q0 38 30.5 67.5t68.5 29.5q61 0 88 -52l422 -731l419 731q27 52 88 52q39 0 70 -29.5t31 -67.5q0 -23 -12 -41z" />
    <glyph glyph-name="Zcaron" unicode="&#x17d;" horiz-adv-x="1351" 
d="M950 1903q0 -29 -26 -52l-168 -153q-28 -25 -49 -25q-24 0 -52 25l-170 153q-24 21 -24 52q0 53 59 53q23 0 49 -23l138 -114l133 114q26 23 55 23q55 0 55 -53zM1298 92q0 -38 -28.5 -65t-67.5 -27h-1052q-97 0 -97 90q0 35 23 68l915 1228h-821q-38 0 -67 28.5
t-29 66.5t29 66t67 28l1030 -2q91 0 88 -86q0 -37 -22 -68l-910 -1233h846q38 0 67 -28t29 -66z" />
    <glyph glyph-name="zcaron" unicode="&#x17e;" horiz-adv-x="1058" 
d="M799 1366q0 -26 -25 -51l-168 -154q-27 -24 -51 -24q-22 0 -49 24l-172 154q-25 22 -25 51q0 53 60 53q23 0 51 -22l135 -115l133 115q28 22 55 22q56 0 56 -53zM973 954q0 -27 -29 -67l-598 -725h537q88 0 88 -78q0 -84 -88 -84h-688q-42 0 -75.5 25t-33.5 59
q0 40 25 68l598 725h-521q-90 0 -90 77q0 36 26.5 60t63.5 24h686q39 0 69 -24t30 -60z" />
    <glyph glyph-name="florin" unicode="&#x192;" horiz-adv-x="1001" 
d="M918 1493q0 -84 -130 -84h-47q-18 2 -41 2q-99 -1 -157 -67t-58 -170v-136h316q90 0 90 -82q0 -79 -90 -79h-316v-840q0 -184 -92 -287q-95 -108 -278 -108h-144q-100 0 -100 79q0 86 131 86q12 0 45.5 -2t40.5 -2q147 3 193 127q24 64 24 246v701h-43q-30 -3 -49 -3
q-129 0 -129 82q0 86 129 86q14 0 50 -2t42 -2v131q0 184 90 291q95 115 279 115h145q99 0 99 -82z" />
    <glyph glyph-name="circumflex" unicode="&#x2c6;" horiz-adv-x="1507" 
d="M997 1706q0 -53 -55 -53q-27 0 -55 22l-133 115l-136 -115q-28 -22 -51 -22q-59 0 -59 53q0 30 24 51l173 154q27 24 49 24q24 0 51 -24l168 -154q24 -24 24 -51z" />
    <glyph glyph-name="caron" unicode="&#x2c7;" horiz-adv-x="1419" 
d="M932 1882q0 -27 -27 -51l-168 -154q-27 -24 -49 -24q-24 0 -51 24l-170 154q-25 22 -25 51q0 53 60 53q23 0 51 -22l135 -115l133 115q28 22 56 22q55 0 55 -53z" />
    <glyph glyph-name="breve" unicode="&#x2d8;" 
d="M1016 1536q0 -142 -123 -244t-309 -102q-179 0 -301 96q-122 101 -119 254q0 29 19 49.5t44 20.5q60 0 60 -64q0 -106 90 -172q80 -57 207 -57q124 0 215 67q94 70 94 162q0 64 63 64q60 0 60 -74z" />
    <glyph glyph-name="dotaccent" unicode="&#x2d9;" horiz-adv-x="1138" 
d="M596 1286q0 -54 -37 -90.5t-88 -36.5q-54 0 -90.5 36.5t-36.5 90.5q0 52 37 89.5t90 37.5q51 0 88 -38t37 -89z" />
    <glyph glyph-name="ring" unicode="&#x2da;" horiz-adv-x="1497" 
d="M1001 1866q0 -86 -62.5 -148.5t-150.5 -62.5t-150.5 62.5t-62.5 148.5q0 88 62.5 150.5t150.5 62.5t150.5 -62.5t62.5 -150.5zM891 1866q0 43 -30 72.5t-73 29.5t-72.5 -29.5t-29.5 -72.5q0 -42 30 -71.5t72 -29.5q43 0 73 30t30 71z" />
    <glyph glyph-name="ogonek" unicode="&#x2db;" horiz-adv-x="1179" 
d="M743 -590q-97 -5 -166 53t-73 148q-6 125 104 256l185 223q26 33 59 33q25 0 44 -18.5t19 -41.5q0 -25 -30 -63l-178 -215q-69 -81 -66 -168q4 -41 35.5 -66.5t68.5 -23.5q15 0 62 18l35 17q12 6 26 6q47 0 50 -47q3 -51 -56 -78q-66 -30 -119 -33z" />
    <glyph glyph-name="tilde" unicode="&#x2dc;" horiz-adv-x="1085" 
d="M870 1757q0 -36 -59 -80q-59 -41 -119 -41q-82 0 -149 58q-56 47 -103 47q-35 0 -80 -39q-24 -21 -55 -21q-45 0 -45 52q0 38 59 82q57 45 125 45q74 0 140 -54q65 -53 100 -53q36 0 76 29q39 28 55 28q52 0 55 -53z" />
    <glyph glyph-name="hungarumlaut" unicode="&#x2dd;" horiz-adv-x="1138" 
d="M971 1536q0 -24 -29 -61l-221 -238q-29 -33 -59 -33q-54 0 -54 58q0 27 29 59l221 238q28 32 60 32q53 0 53 -55zM596 1536q0 -25 -31 -61l-219 -238q-29 -33 -59 -33q-54 0 -54 58q0 27 29 59l221 238q28 32 60 32q53 0 53 -55z" />
    <glyph glyph-name="increment" unicode="&#x394;" horiz-adv-x="1316" 
d="M805 1485l407 -1319q13 -47 13 -76q0 -90 -97 -90h-921q-107 0 -107 104q0 29 9 56l409 1325q37 119 146 119q107 0 141 -119zM305 174h713l-356 1108z" />
    <glyph glyph-name="increment" unicode="&#x2206;" horiz-adv-x="1316" 
d="M805 1485l407 -1319q13 -47 13 -76q0 -90 -97 -90h-921q-107 0 -107 104q0 29 9 56l409 1325q37 119 146 119q107 0 141 -119zM305 174h713l-356 1108z" />
    <glyph glyph-name="Omega" unicode="&#x3a9;" horiz-adv-x="1634" 
d="M1561 90q0 -90 -93 -90h-452q-100 0 -103 80q-3 77 64 104q163 55 264 217q102 163 105 379q3 261 -150 449q-149 186 -379 186t-379 -186q-149 -183 -149 -449q0 -210 100 -370q101 -162 262 -224q70 -27 70 -100q0 -86 -100 -86h-455q-92 0 -92 90t92 90h178
q-115 89 -182 252q-66 167 -66 346q0 348 209 586q211 240 512 240q303 0 512 -240q209 -238 209 -586q0 -182 -59 -336q-63 -165 -189 -262h178q93 0 93 -90z" />
    <glyph glyph-name="Omega" unicode="&#x2126;" horiz-adv-x="1634" 
d="M1561 90q0 -90 -93 -90h-452q-100 0 -103 80q-3 77 64 104q163 55 264 217q102 163 105 379q3 261 -150 449q-149 186 -379 186t-379 -186q-149 -183 -149 -449q0 -210 100 -370q101 -162 262 -224q70 -27 70 -100q0 -86 -100 -86h-455q-92 0 -92 90t92 90h178
q-115 89 -182 252q-66 167 -66 346q0 348 209 586q211 240 512 240q303 0 512 -240q209 -238 209 -586q0 -182 -59 -336q-63 -165 -189 -262h178q93 0 93 -90z" />
    <glyph glyph-name="pi" unicode="&#x3c0;" horiz-adv-x="1243" 
d="M1153 952q0 -65 -68 -80q-16 -4 -116 -4v-581q0 -120 37 -207q8 -19 8 -41q0 -34 -28 -56t-62 -22q-54 0 -84 53q-54 105 -54 236v618h-348v-807q0 -94 -90 -94q-39 0 -64.5 26.5t-25.5 67.5v807q-90 0 -111 6q-59 15 -59 78q0 86 92 86h883q90 0 90 -86z" />
    <glyph glyph-name="endash" unicode="&#x2013;" horiz-adv-x="995" 
d="M946 600q0 -88 -92 -88h-711q-94 0 -94 88q0 41 26.5 66.5t67.5 25.5h711q92 0 92 -92z" />
    <glyph glyph-name="emdash" unicode="&#x2014;" horiz-adv-x="1374" 
d="M1327 600q0 -88 -92 -88h-1092q-94 0 -94 88q0 41 26.5 66.5t67.5 25.5h1092q92 0 92 -92z" />
    <glyph glyph-name="quoteleft" unicode="&#x2018;" horiz-adv-x="436" 
d="M348 1264q0 -50 -37.5 -85.5t-91.5 -35.5q-55 0 -92 35.5t-37 85.5q0 184 92 299q34 43 74 16q39 -26 12 -63q-35 -47 -35 -103q0 -28 15 -31q100 -24 100 -118z" />
    <glyph glyph-name="quoteright" unicode="&#x2019;" horiz-adv-x="436" 
d="M348 1456q0 -181 -92 -299q-33 -41 -74 -14q-39 23 -12 61q35 50 35 103q0 27 -15 30q-100 24 -100 119q0 51 37.5 87t91.5 36q55 0 92 -36t37 -87z" />
    <glyph glyph-name="quotesinglbase" unicode="&#x201a;" horiz-adv-x="425" 
d="M344 74q0 -47 -20 -131q-15 -55 -39 -117q-26 -75 -70 -78q-34 0 -65 72q-22 55 -44 127q-20 61 -20 127q0 47 37 85t92 38q63 0 100 -43q29 -37 29 -80z" />
    <glyph glyph-name="quotedblleft" unicode="&#x201c;" horiz-adv-x="804" 
d="M707 1264q0 -50 -35.5 -85.5t-85.5 -35.5q-51 0 -86 35.5t-35 85.5q0 184 86 299q30 43 70 16q36 -26 10 -63q-33 -44 -33 -103q0 -28 14 -31q95 -24 95 -118zM340 1264q0 -50 -35 -85.5t-86 -35.5q-49 0 -84 35.5t-35 85.5q0 183 84 299q34 42 70 16t10 -63
q-31 -48 -31 -103q0 -28 13 -31q94 -24 94 -118z" />
    <glyph glyph-name="quotedblright" unicode="&#x201d;" horiz-adv-x="804" 
d="M707 1456q0 -181 -86 -299q-29 -42 -70 -14q-36 23 -10 63q32 43 32 101q0 27 -14 30q-94 24 -94 119q0 51 35.5 87t85.5 36q51 0 86 -36t35 -87zM340 1456q0 -181 -86 -299q-29 -42 -68 -14q-36 23 -12 63q33 44 33 101q0 27 -12 30q-95 24 -95 119q0 51 35 87t84 36
q51 0 86 -36t35 -87z" />
    <glyph glyph-name="quotedblbase" unicode="&#x201e;" horiz-adv-x="763" 
d="M686 82q0 -47 -20 -131q-9 -40 -35 -117q-27 -76 -66 -76q-33 -3 -61 72q-14 31 -39 125q-19 71 -19 127q0 49 33.5 86t85.5 37q57 0 89 -36t32 -87zM317 82q0 -47 -20 -131q-9 -40 -35 -117q-27 -76 -65 -76q-34 -3 -62 72q-14 31 -39 125q-18 67 -18 127q0 49 34 86
t87 37q57 0 92 -41q26 -33 26 -82z" />
    <glyph glyph-name="dagger" unicode="&#x2020;" horiz-adv-x="1085" 
d="M1022 1128q0 -88 -92 -88h-297v-1015q0 -93 -88 -93q-40 0 -66 27t-26 66v1015h-295q-92 0 -92 88q0 93 92 93h295v297q0 90 92 90q88 0 88 -90v-297h297q92 0 92 -93z" />
    <glyph glyph-name="daggerdbl" unicode="&#x2021;" horiz-adv-x="1085" 
d="M1024 412q0 -93 -90 -93h-297v-294q0 -93 -88 -93q-92 0 -92 93v294h-295q-92 0 -92 93q0 90 92 90h295v538h-295q-92 0 -92 88q0 93 92 93h295v297q0 39 25.5 64.5t66.5 25.5q88 0 88 -90v-2v-295h297q90 0 90 -93q0 -88 -90 -88h-297v-538h297q90 0 90 -90z" />
    <glyph glyph-name="bullet" unicode="&#x2022;" horiz-adv-x="792" 
d="M584 758q0 -85 -58 -143t-143 -58t-143 58t-58 143t58 142.5t143 57.5t143 -57.5t58 -142.5z" />
    <glyph glyph-name="ellipsis" unicode="&#x2026;" horiz-adv-x="1331" 
d="M1217 66q0 -53 -37.5 -90t-89.5 -37q-54 0 -90.5 36.5t-36.5 90.5q0 52 37 89.5t90 37.5q51 0 89 -38t38 -89zM776 66q0 -54 -36.5 -90.5t-90.5 -36.5t-90.5 36.5t-36.5 90.5q0 52 37 89.5t90 37.5t90 -37.5t37 -89.5zM336 66q0 -54 -36.5 -90.5t-90.5 -36.5t-90.5 36.5
t-36.5 90.5q0 52 37 89.5t90 37.5t90 -37.5t37 -89.5z" />
    <glyph glyph-name="perthousand" unicode="&#x2030;" horiz-adv-x="3151" 
d="M3062 465q0 -209 -125 -352q-127 -142 -307 -142q-181 0 -308 142q-124 142 -124 352q0 208 124 350q125 143 308 143q182 0 307 -143t125 -350zM2083 465q0 -207 -127 -352q-127 -142 -305 -142q-183 0 -310 142q-124 142 -124 352q0 208 124 350q125 143 310 143
q180 0 305 -143q127 -145 127 -350zM1427 1341l-550 -1185q-21 -43 -60 -43q-55 0 -55 55q0 20 10 43l549 1186q21 43 65 43q54 0 54 -51q0 -22 -13 -48zM967 1087q0 -205 -127 -350q-126 -141 -305 -141q-182 0 -308 141q-125 143 -125 350q0 210 125 353t308 143
q180 0 305 -143q127 -145 127 -353zM2945 465q0 155 -90 268q-88 113 -225 113q-140 0 -228 -113q-88 -110 -88 -268q0 -160 88 -270q89 -109 228 -109q136 0 225 109q90 113 90 270zM1966 465q0 155 -90 268q-88 113 -225 113q-140 0 -228 -113q-90 -113 -90 -268
q0 -157 90 -270q89 -109 228 -109q136 0 225 109q90 113 90 270zM850 1087q0 158 -90 271q-87 112 -225 112q-141 0 -228 -112q-90 -113 -90 -271q0 -155 90 -268q88 -110 228 -110q137 0 225 110q90 113 90 268z" />
    <glyph glyph-name="guilsinglleft" unicode="&#x2039;" horiz-adv-x="632" 
d="M545 948q0 -44 -37 -84l-199 -223l199 -231q35 -41 35 -76q0 -88 -78 -88q-45 0 -78 39l-258 280q-39 42 -39 76q0 35 39 74l258 276q36 39 78 39q80 0 80 -82z" />
    <glyph glyph-name="guilsinglright" unicode="&#x203a;" horiz-adv-x="632" 
d="M545 641q0 -32 -41 -76l-256 -280q-33 -39 -80 -39q-76 0 -76 88q0 37 33 76l199 231l-199 223q-35 41 -35 84q0 82 78 82q44 0 80 -39l256 -276q41 -41 41 -74z" />
    <glyph glyph-name="fraction" unicode="&#x2044;" horiz-adv-x="1740" 
d="M1151 1341l-549 -1185q-21 -43 -61 -43q-56 0 -56 55q0 17 11 43l551 1186q21 43 63 43q53 0 53 -51q0 -24 -12 -48z" />
    <glyph glyph-name="euro" unicode="&#x20ac;" horiz-adv-x="1476" 
d="M1350 1153q0 -46 -30 -75t-73 -29q-98 0 -98 104q0 74 -78 158q-101 110 -262 110q-136 0 -244 -102t-157 -281h311q42 0 69 -23.5t27 -56.5q0 -79 -96 -79h-340q-6 -59 -6 -119q0 -45 2 -68h344q42 0 69 -23t27 -59q0 -80 -96 -80h-328q27 -208 184 -311
q116 -72 254 -72q136 0 281 86q27 17 51 17q40 0 66 -29q24 -35 24 -71q0 -53 -57 -87q-166 -94 -324 -94q-610 0 -680 561h-43q-98 0 -98 80q0 35 27.5 58.5t70.5 23.5h31q-2 23 -2 68q0 41 4 119h-33q-98 0 -98 79q0 33 28 56.5t70 23.5h58q58 279 239 428
q164 138 381 138q206 0 365 -138q160 -136 160 -313z" />
    <glyph glyph-name="trademark" unicode="&#x2122;" horiz-adv-x="1064" 
d="M842 1554l104 -436q6 -29 -22 -35t-35 23l-78 330l-84 -330q-7 -23 -29 -23q-21 0 -28 23l-82 328l-78 -328q-7 -29 -35 -23t-22 35l104 436q3 23 29 23q21 0 28 -23l84 -335l84 335q9 26 33 23q20 0 27 -23zM500 1546q0 -28 -31 -28h-129v-406q0 -29 -31 -29
q-28 0 -28 29v406h-131q-29 0 -29 28q0 29 29 29h319q31 0 31 -29z" />
    <glyph glyph-name="partialdiff" unicode="&#x2202;" horiz-adv-x="1202" 
d="M1094 879v-813q0 -39 -25 -68t-61 -29q-63 0 -84 64q-68 -45 -127 -60q-36 -8 -129 -8q-228 0 -396 160q-163 159 -163 381q0 224 163 383q168 160 396 160q106 0 254 -62q-18 257 -265 424q-45 29 -45 66q0 26 23 49.5t49 23.5q28 0 57 -20q353 -220 353 -651zM920 215
v582q-118 92 -252 92q-161 0 -271 -113q-108 -111 -108 -270q0 -156 108 -270q110 -113 271 -113q137 0 252 92z" />
    <glyph glyph-name="product" unicode="&#x220f;" horiz-adv-x="1679" 
d="M1583 1481q0 -88 -90 -88h-174v-1569q0 -94 -90 -94q-39 0 -65.5 26.5t-26.5 67.5v1569h-578v-1569q0 -94 -90 -94q-39 0 -65.5 26.5t-26.5 67.5v1569h-176q-92 0 -92 88q0 41 25.5 66.5t66.5 25.5h1292q90 0 90 -92z" />
    <glyph glyph-name="summation" unicode="&#x2211;" horiz-adv-x="1181" 
d="M1102 -31q0 -42 -29 -70t-72 -28h-794q-45 0 -76 26t-31 68q0 56 39 101l580 679l-559 644q-56 65 -56 114q0 43 30 72t73 29h782q44 0 73.5 -29.5t29.5 -73.5q0 -43 -29.5 -70.5t-73.5 -27.5h-565l508 -569q45 -48 45 -89q0 -39 -45 -90l-514 -585h583q43 0 72 -28.5
t29 -72.5z" />
    <glyph glyph-name="radical" unicode="&#x221a;" horiz-adv-x="1615" 
d="M1526 1518q0 -76 -92 -76h-326l-553 -1475q-24 -65 -74 -65q-56 0 -80 65l-305 809q-10 27 -10 51q0 31 22 52.5t54 21.5q63 0 84 -61l231 -645l498 1333q12 31 48 53.5t71 22.5h348q84 0 84 -86z" />
    <glyph glyph-name="infinity" unicode="&#x221e;" horiz-adv-x="1376" 
d="M1171 635q0 -104 -64 -170t-167 -66q-142 0 -248 160q-115 -160 -254 -160q-104 0 -168.5 67t-64.5 173q0 100 66.5 166.5t166.5 66.5q139 0 248 -157q109 157 254 157q104 0 167.5 -66t63.5 -171zM1053 637q0 56 -36.5 93.5t-92.5 37.5q-106 0 -176 -131
q83 -133 178 -133q55 0 91 38t36 95zM631 637q-88 131 -180 131q-55 0 -91 -38t-36 -95q0 -56 37 -93.5t92 -37.5q98 0 178 133z" />
    <glyph glyph-name="integral" unicode="&#x222b;" horiz-adv-x="770" 
d="M711 1661q0 -36 -27 -62t-63 -26l-115 2q-69 0 -90 -18.5t-21 -79.5v-1647q0 -146 -51 -205t-170 -59h-201q-36 0 -63 25.5t-27 60.5q0 36 27 61t63 25h193q51 0 51 72v1726q0 208 205 211h199q36 0 63 -25t27 -61z" />
    <glyph glyph-name="approxequal" unicode="&#x2248;" horiz-adv-x="1155" 
d="M1069 836q0 -77 -119 -123q-88 -33 -186 -33q-75 0 -199 59q-123 60 -196 60q-55 0 -117 -35q-56 -33 -78 -33q-32 0 -49 33q-19 28 -19 57q0 43 39 72q113 88 230 88q80 0 190 -61q117 -60 203 -60q74 0 137 29q64 31 90 31q28 0 51 -27t23 -57zM1069 467
q0 -79 -119 -125q-88 -33 -186 -33q-73 0 -199 60q-121 59 -196 59q-58 0 -117 -33q-56 -33 -78 -33q-29 0 -48.5 28t-19.5 61q0 42 39 71q113 88 230 88q80 0 190 -61q117 -60 203 -60q77 0 137 31q64 31 90 31q28 0 51 -28t23 -56z" />
    <glyph glyph-name="approxequal" unicode="&#x22f2;" horiz-adv-x="1155" 
d="M1069 836q0 -77 -119 -123q-88 -33 -186 -33q-75 0 -199 59q-123 60 -196 60q-55 0 -117 -35q-56 -33 -78 -33q-32 0 -49 33q-19 28 -19 57q0 43 39 72q113 88 230 88q80 0 190 -61q117 -60 203 -60q74 0 137 29q64 31 90 31q28 0 51 -27t23 -57zM1069 467
q0 -79 -119 -125q-88 -33 -186 -33q-73 0 -199 60q-121 59 -196 59q-58 0 -117 -33q-56 -33 -78 -33q-29 0 -48.5 28t-19.5 61q0 42 39 71q113 88 230 88q80 0 190 -61q117 -60 203 -60q77 0 137 31q64 31 90 31q28 0 51 -28t23 -56z" />
    <glyph glyph-name="notequal" unicode="&#x2260;" horiz-adv-x="1155" 
d="M1067 469q0 -90 -92 -90h-447l-79 -172q-30 -68 -91 -68q-67 0 -67 80q0 32 14 60l45 100h-168q-92 0 -92 90q0 39 25.5 64.5t66.5 25.5h250l82 180h-332q-92 0 -92 90q0 39 25.5 65t66.5 26h414l68 145q30 68 90 68q67 0 67 -80q0 -31 -12 -58l-35 -75h201q92 0 92 -91
q0 -90 -92 -90h-283l-82 -180h365q92 0 92 -90z" />
    <glyph glyph-name="lessequal" unicode="&#x2264;" horiz-adv-x="628" 
d="M535 971q0 -41 -35 -82l-195 -221l195 -226q32 -38 32 -73q0 -88 -73 -88q-45 0 -78 36l-252 277q-39 39 -39 74q0 34 39 73l252 271q36 39 78 39q76 0 76 -80zM539 84q0 -88 -90 -88h-267q-90 0 -90 88q0 90 90 90h267q90 0 90 -90z" />
    <glyph glyph-name="greaterequal" unicode="&#x2265;" horiz-adv-x="628" 
d="M539 668q0 -35 -39 -74l-252 -277q-33 -36 -78 -36q-74 0 -74 88q0 34 33 73l195 226l-195 221q-35 41 -35 82q0 80 76 80q42 0 78 -39l252 -271q39 -39 39 -73zM537 84q0 -88 -91 -88h-266q-90 0 -90 88q0 90 90 90h266q91 0 91 -90z" />
    <glyph glyph-name="lozenge" unicode="&#x25ca;" horiz-adv-x="1087" 
d="M690 1491l305 -698l-305 -711q-50 -115 -139 -115q-86 0 -139 115l-318 706l318 703q53 115 139 115t139 -115zM551 152l264 636l-264 623l-283 -627z" />
    <glyph glyph-name="apple" unicode="&#xf000;" horiz-adv-x="1720" 
d="M1612 1468v-1466h-322l-502 735l498 731h326zM188 739l502 -737h-547v1466h543z" />
    <glyph glyph-name="fi" unicode="&#xf001;" horiz-adv-x="1243" 
d="M1094 1272q0 -53 -37.5 -90t-89.5 -37t-89.5 37t-37.5 90q0 51 38 89t89 38t89 -38t38 -89zM1067 950v-901q0 -45 -29 -76.5t-73 -31.5q-99 0 -99 108v828h-381v-840q0 -38 -26 -67t-62 -29q-38 0 -65 29.5t-27 66.5v840h-47q-27 -3 -45 -3q-129 0 -129 82q0 86 131 86
q14 0 49 -2t41 -2v131q0 406 404 406q98 0 98 -82t-80 -82q-242 0 -242 -237v-136h480q40 0 71 -25.5t31 -62.5z" />
    <glyph glyph-name="fl" unicode="&#xf002;" horiz-adv-x="1294" 
d="M1153 94q12 -24 12 -51q0 -41 -25.5 -71.5t-58.5 -30.5q-85 0 -125 79q-45 86 -45 273v1118h-211q-109 0 -168 -80q-47 -65 -47 -157v-136h246q88 0 88 -82q0 -79 -88 -79h-246v-840q0 -38 -26.5 -67t-61.5 -29q-37 0 -64.5 29t-27.5 67v840h-135q-86 0 -86 79
q0 82 86 82h135v131q0 199 101 306q93 100 268 100h338q44 0 72 -27t28 -69v-1153q0 -145 41 -232z" />
    <glyph glyph-name="nineold" unicode="&#xf739;" horiz-adv-x="1368" 
d="M1030 1071q0 135 -98 236q-107 110 -270 110q-143 0 -244 -94q-109 -103 -109 -266q0 -150 115 -250q110 -90 244 -90q137 0 241 84q121 100 121 270zM111 1057q0 243 176 399q165 148 393 148q297 0 453 -246q135 -212 135 -559q0 -364 -172 -588q-187 -242 -518 -242
q-72 0 -160 31q-115 41 -115 106q0 89 96 89q14 0 82 -19q65 -18 101 -18q202 0 340 164q126 156 141 380q-158 -174 -408 -174q-209 0 -372 144q-172 153 -172 385z" />
    <glyph glyph-name="CR.001" horiz-adv-x="610" 
 />
    <glyph glyph-name="HT" horiz-adv-x="610" 
 />
    <glyph glyph-name="LF" horiz-adv-x="1024" 
 />
    <glyph glyph-name="CR" horiz-adv-x="1024" 
 />
    <glyph glyph-name="DLE" horiz-adv-x="1024" 
 />
    <glyph glyph-name="DC1" horiz-adv-x="1024" 
 />
    <glyph glyph-name="DC2" horiz-adv-x="1024" 
 />
    <glyph glyph-name="DC3" horiz-adv-x="1024" 
 />
    <glyph glyph-name="DC4" horiz-adv-x="1024" 
 />
    <glyph glyph-name="DEL" horiz-adv-x="1024" 
 />
    <glyph glyph-name="_278" horiz-adv-x="0" 
 />
    </font>
</defs>
</svg>
