<svg xmlns="http://www.w3.org/2000/svg" width="20.534" height="13" viewBox="0 0 20.534 13">
  <g id="Group_1255" data-name="Group 1255" transform="translate(-417.591 -29)">
    <path id="ic_assignment_24px" d="M13.4,2.3H10.683a1.942,1.942,0,0,0-3.666,0H4.3A1.3,1.3,0,0,0,3,3.6v9.1A1.3,1.3,0,0,0,4.3,14h9.1a1.3,1.3,0,0,0,1.3-1.3V3.6A1.3,1.3,0,0,0,13.4,2.3Zm-4.55,0a.65.65,0,1,1-.65.65A.652.652,0,0,1,8.85,2.3Zm1.3,9.1H5.6V10.1h4.55ZM12.1,8.8H5.6V7.5h6.5Zm0-2.6H5.6V4.9h6.5Z" transform="translate(423.425 28)" fill="#fff"/>
    <g id="Group_1239" data-name="Group 1239" transform="translate(417.591 27)">
      <path id="ic_person_add_24px" d="M5.151,8.981V6.491H3.491V8.981H1v1.66H3.491v2.491h1.66V10.642H7.642V8.981Z" transform="translate(-1 -4)" fill="#fff"/>
    </g>
  </g>
</svg>
